ISO-10303-21;
HEADER;
/* Generated by software containing ST-Developer
 * from STEP Tools, Inc. (www.steptools.com) 
 */

FILE_DESCRIPTION(
/* description */ (''),
/* implementation_level */ '2;1');

FILE_NAME(
/* name */ 'sample.step',
/* time_stamp */ '2026-07-19T20:03:34+05:30',
/* author */ (''),
/* organization */ (''),
/* preprocessor_version */ 'ST-DEVELOPER v20.1',
/* originating_system */ 'Autodesk Translation Framework v15.8.0.0',
/* authorisation */ '');

FILE_SCHEMA (('AUTOMOTIVE_DESIGN { 1 0 10303 214 3 1 1 }'));
ENDSEC;

DATA;
#10=MECHANICAL_DESIGN_GEOMETRIC_PRESENTATION_REPRESENTATION('',(#13),#1506);
#11=SHAPE_REPRESENTATION_RELATIONSHIP('SRR','None',#1513,#12);
#12=ADVANCED_BREP_SHAPE_REPRESENTATION('',(#14),#1505);
#13=STYLED_ITEM('',(#1522),#14);
#14=MANIFOLD_SOLID_BREP('Body2',#710);
#15=FACE_BOUND('',#101,.T.);
#16=FACE_BOUND('',#103,.T.);
#17=(
BOUNDED_CURVE()
B_SPLINE_CURVE(5,(#1005,#1006,#1007,#1008,#1009,#1010,#1011,#1012,#1013,
#1014,#1015,#1016,#1017,#1018,#1019,#1020,#1021,#1022,#1023,#1024,#1025,
#1026,#1027,#1028,#1029),.UNSPECIFIED.,.F.,.F.)
B_SPLINE_CURVE_WITH_KNOTS((6,1,1,1,1,1,1,1,1,1,1,1,1,1,1,1,1,1,1,1,6),(0.,
0.05,0.1,0.15,0.2,0.25,0.3,0.35,0.4,0.45,0.5,0.55,0.6,0.65,0.7,0.75,0.8,
0.85,0.9,0.95,1.),.UNSPECIFIED.)
CURVE()
GEOMETRIC_REPRESENTATION_ITEM()
RATIONAL_B_SPLINE_CURVE((1.,1.,1.,1.,1.,1.,1.,1.,1.,1.,1.,1.,1.,1.,1.,1.,
1.,1.,1.,1.,1.,1.,1.,1.,1.))
REPRESENTATION_ITEM('')
);
#18=(
BOUNDED_CURVE()
B_SPLINE_CURVE(5,(#1031,#1032,#1033,#1034,#1035,#1036,#1037,#1038,#1039,
#1040,#1041,#1042,#1043,#1044,#1045,#1046,#1047,#1048,#1049,#1050,#1051,
#1052,#1053,#1054,#1055),.UNSPECIFIED.,.F.,.F.)
B_SPLINE_CURVE_WITH_KNOTS((6,1,1,1,1,1,1,1,1,1,1,1,1,1,1,1,1,1,1,1,6),(0.,
0.05,0.1,0.15,0.2,0.25,0.3,0.35,0.4,0.45,0.5,0.55,0.6,0.65,0.7,0.75,0.8,
0.85,0.9,0.95,1.),.UNSPECIFIED.)
CURVE()
GEOMETRIC_REPRESENTATION_ITEM()
RATIONAL_B_SPLINE_CURVE((1.,1.,1.,1.,1.,1.,1.,1.,1.,1.,1.,1.,1.,1.,1.,1.,
1.,1.,1.,1.,1.,1.,1.,1.,1.))
REPRESENTATION_ITEM('')
);
#19=(
BOUNDED_CURVE()
B_SPLINE_CURVE(5,(#1144,#1145,#1146,#1147,#1148,#1149,#1150,#1151,#1152,
#1153,#1154,#1155,#1156,#1157,#1158,#1159,#1160,#1161,#1162,#1163,#1164,
#1165,#1166,#1167,#1168),.UNSPECIFIED.,.F.,.F.)
B_SPLINE_CURVE_WITH_KNOTS((6,1,1,1,1,1,1,1,1,1,1,1,1,1,1,1,1,1,1,1,6),(0.,
0.05,0.1,0.15,0.2,0.25,0.3,0.35,0.4,0.45,0.5,0.55,0.6,0.65,0.7,0.75,0.8,
0.85,0.9,0.95,1.),.UNSPECIFIED.)
CURVE()
GEOMETRIC_REPRESENTATION_ITEM()
RATIONAL_B_SPLINE_CURVE((1.,1.,1.,1.,1.,1.,1.,1.,1.,1.,1.,1.,1.,1.,1.,1.,
1.,1.,1.,1.,1.,1.,1.,1.,1.))
REPRESENTATION_ITEM('')
);
#20=(
BOUNDED_CURVE()
B_SPLINE_CURVE(5,(#1170,#1171,#1172,#1173,#1174,#1175,#1176,#1177,#1178,
#1179,#1180,#1181,#1182,#1183,#1184,#1185,#1186,#1187,#1188,#1189,#1190,
#1191,#1192,#1193,#1194),.UNSPECIFIED.,.F.,.F.)
B_SPLINE_CURVE_WITH_KNOTS((6,1,1,1,1,1,1,1,1,1,1,1,1,1,1,1,1,1,1,1,6),(-1.,
-0.95,-0.9,-0.85,-0.8,-0.75,-0.7,-0.65,-0.6,-0.55,-0.5,-0.45,-0.4,-0.35,
-0.3,-0.25,-0.2,-0.15,-0.1,-0.05,0.),.UNSPECIFIED.)
CURVE()
GEOMETRIC_REPRESENTATION_ITEM()
RATIONAL_B_SPLINE_CURVE((1.,1.,1.,1.,1.,1.,1.,1.,1.,1.,1.,1.,1.,1.,1.,1.,
1.,1.,1.,1.,1.,1.,1.,1.,1.))
REPRESENTATION_ITEM('')
);
#21=(
BOUNDED_CURVE()
B_SPLINE_CURVE(5,(#1283,#1284,#1285,#1286,#1287,#1288,#1289,#1290,#1291,
#1292,#1293,#1294,#1295,#1296,#1297,#1298,#1299,#1300,#1301,#1302,#1303,
#1304,#1305,#1306,#1307),.UNSPECIFIED.,.F.,.F.)
B_SPLINE_CURVE_WITH_KNOTS((6,1,1,1,1,1,1,1,1,1,1,1,1,1,1,1,1,1,1,1,6),(0.,
0.05,0.1,0.15,0.2,0.25,0.3,0.35,0.4,0.45,0.5,0.55,0.6,0.65,0.7,0.75,0.8,
0.85,0.9,0.95,1.),.UNSPECIFIED.)
CURVE()
GEOMETRIC_REPRESENTATION_ITEM()
RATIONAL_B_SPLINE_CURVE((1.,1.,1.,1.,1.,1.,1.,1.,1.,1.,1.,1.,1.,1.,1.,1.,
1.,1.,1.,1.,1.,1.,1.,1.,1.))
REPRESENTATION_ITEM('')
);
#22=(
BOUNDED_CURVE()
B_SPLINE_CURVE(5,(#1309,#1310,#1311,#1312,#1313,#1314,#1315,#1316,#1317,
#1318,#1319,#1320,#1321,#1322,#1323,#1324,#1325,#1326,#1327,#1328,#1329,
#1330,#1331,#1332,#1333),.UNSPECIFIED.,.F.,.F.)
B_SPLINE_CURVE_WITH_KNOTS((6,1,1,1,1,1,1,1,1,1,1,1,1,1,1,1,1,1,1,1,6),(-1.,
-0.95,-0.9,-0.85,-0.8,-0.75,-0.7,-0.65,-0.6,-0.55,-0.5,-0.45,-0.4,-0.35,
-0.3,-0.25,-0.2,-0.15,-0.1,-0.05,0.),.UNSPECIFIED.)
CURVE()
GEOMETRIC_REPRESENTATION_ITEM()
RATIONAL_B_SPLINE_CURVE((1.,1.,1.,1.,1.,1.,1.,1.,1.,1.,1.,1.,1.,1.,1.,1.,
1.,1.,1.,1.,1.,1.,1.,1.,1.))
REPRESENTATION_ITEM('')
);
#23=(
BOUNDED_CURVE()
B_SPLINE_CURVE(5,(#1422,#1423,#1424,#1425,#1426,#1427,#1428,#1429,#1430,
#1431,#1432,#1433,#1434,#1435,#1436,#1437,#1438,#1439,#1440,#1441,#1442,
#1443,#1444,#1445,#1446),.UNSPECIFIED.,.F.,.F.)
B_SPLINE_CURVE_WITH_KNOTS((6,1,1,1,1,1,1,1,1,1,1,1,1,1,1,1,1,1,1,1,6),(0.,
0.05,0.1,0.15,0.2,0.25,0.3,0.35,0.4,0.45,0.5,0.55,0.6,0.65,0.7,0.75,0.8,
0.85,0.9,0.95,1.),.UNSPECIFIED.)
CURVE()
GEOMETRIC_REPRESENTATION_ITEM()
RATIONAL_B_SPLINE_CURVE((1.,1.,1.,1.,1.,1.,1.,1.,1.,1.,1.,1.,1.,1.,1.,1.,
1.,1.,1.,1.,1.,1.,1.,1.,1.))
REPRESENTATION_ITEM('')
);
#24=(
BOUNDED_CURVE()
B_SPLINE_CURVE(5,(#1448,#1449,#1450,#1451,#1452,#1453,#1454,#1455,#1456,
#1457,#1458,#1459,#1460,#1461,#1462,#1463,#1464,#1465,#1466,#1467,#1468,
#1469,#1470,#1471,#1472),.UNSPECIFIED.,.F.,.F.)
B_SPLINE_CURVE_WITH_KNOTS((6,1,1,1,1,1,1,1,1,1,1,1,1,1,1,1,1,1,1,1,6),(0.,
0.05,0.1,0.15,0.2,0.25,0.3,0.35,0.4,0.45,0.5,0.55,0.6,0.65,0.7,0.75,0.8,
0.85,0.9,0.95,1.),.UNSPECIFIED.)
CURVE()
GEOMETRIC_REPRESENTATION_ITEM()
RATIONAL_B_SPLINE_CURVE((1.,1.,1.,1.,1.,1.,1.,1.,1.,1.,1.,1.,1.,1.,1.,1.,
1.,1.,1.,1.,1.,1.,1.,1.,1.))
REPRESENTATION_ITEM('')
);
#25=(
BOUNDED_SURFACE()
B_SPLINE_SURFACE(5,1,((#954,#955),(#956,#957),(#958,#959),(#960,#961),(#962,
#963),(#964,#965),(#966,#967),(#968,#969),(#970,#971),(#972,#973),(#974,
#975),(#976,#977),(#978,#979),(#980,#981),(#982,#983),(#984,#985),(#986,
#987),(#988,#989),(#990,#991),(#992,#993),(#994,#995),(#996,#997),(#998,
#999),(#1000,#1001),(#1002,#1003)),.UNSPECIFIED.,.F.,.F.,.F.)
B_SPLINE_SURFACE_WITH_KNOTS((6,1,1,1,1,1,1,1,1,1,1,1,1,1,1,1,1,1,1,1,6),
(2,2),(0.,0.05,0.1,0.15,0.2,0.25,0.3,0.35,0.4,0.45,0.5,0.55,0.6,0.65,0.7,
0.75,0.8,0.85,0.9,0.95,1.),(0.,36.),.UNSPECIFIED.)
GEOMETRIC_REPRESENTATION_ITEM()
RATIONAL_B_SPLINE_SURFACE(((1.,1.),(1.,1.),(1.,1.),(1.,1.),(1.,1.),(1.,
1.),(1.,1.),(1.,1.),(1.,1.),(1.,1.),(1.,1.),(1.,1.),(1.,1.),(1.,1.),(1.,
1.),(1.,1.),(1.,1.),(1.,1.),(1.,1.),(1.,1.),(1.,1.),(1.,1.),(1.,1.),(1.,
1.),(1.,1.)))
REPRESENTATION_ITEM('')
SURFACE()
);
#26=(
BOUNDED_SURFACE()
B_SPLINE_SURFACE(5,1,((#1093,#1094),(#1095,#1096),(#1097,#1098),(#1099,
#1100),(#1101,#1102),(#1103,#1104),(#1105,#1106),(#1107,#1108),(#1109,#1110),
(#1111,#1112),(#1113,#1114),(#1115,#1116),(#1117,#1118),(#1119,#1120),(#1121,
#1122),(#1123,#1124),(#1125,#1126),(#1127,#1128),(#1129,#1130),(#1131,#1132),
(#1133,#1134),(#1135,#1136),(#1137,#1138),(#1139,#1140),(#1141,#1142)),
 .UNSPECIFIED.,.F.,.F.,.F.)
B_SPLINE_SURFACE_WITH_KNOTS((6,1,1,1,1,1,1,1,1,1,1,1,1,1,1,1,1,1,1,1,6),
(2,2),(-1.,-0.95,-0.9,-0.85,-0.8,-0.75,-0.7,-0.65,-0.6,-0.55,-0.5,-0.45,
-0.4,-0.35,-0.3,-0.25,-0.2,-0.15,-0.1,-0.05,0.),(0.,36.),.UNSPECIFIED.)
GEOMETRIC_REPRESENTATION_ITEM()
RATIONAL_B_SPLINE_SURFACE(((1.,1.),(1.,1.),(1.,1.),(1.,1.),(1.,1.),(1.,
1.),(1.,1.),(1.,1.),(1.,1.),(1.,1.),(1.,1.),(1.,1.),(1.,1.),(1.,1.),(1.,
1.),(1.,1.),(1.,1.),(1.,1.),(1.,1.),(1.,1.),(1.,1.),(1.,1.),(1.,1.),(1.,
1.),(1.,1.)))
REPRESENTATION_ITEM('')
SURFACE()
);
#27=(
BOUNDED_SURFACE()
B_SPLINE_SURFACE(5,1,((#1232,#1233),(#1234,#1235),(#1236,#1237),(#1238,
#1239),(#1240,#1241),(#1242,#1243),(#1244,#1245),(#1246,#1247),(#1248,#1249),
(#1250,#1251),(#1252,#1253),(#1254,#1255),(#1256,#1257),(#1258,#1259),(#1260,
#1261),(#1262,#1263),(#1264,#1265),(#1266,#1267),(#1268,#1269),(#1270,#1271),
(#1272,#1273),(#1274,#1275),(#1276,#1277),(#1278,#1279),(#1280,#1281)),
 .UNSPECIFIED.,.F.,.F.,.F.)
B_SPLINE_SURFACE_WITH_KNOTS((6,1,1,1,1,1,1,1,1,1,1,1,1,1,1,1,1,1,1,1,6),
(2,2),(-1.,-0.95,-0.9,-0.85,-0.8,-0.75,-0.7,-0.65,-0.6,-0.55,-0.5,-0.45,
-0.4,-0.35,-0.3,-0.25,-0.2,-0.15,-0.1,-0.05,0.),(0.,36.),.UNSPECIFIED.)
GEOMETRIC_REPRESENTATION_ITEM()
RATIONAL_B_SPLINE_SURFACE(((1.,1.),(1.,1.),(1.,1.),(1.,1.),(1.,1.),(1.,
1.),(1.,1.),(1.,1.),(1.,1.),(1.,1.),(1.,1.),(1.,1.),(1.,1.),(1.,1.),(1.,
1.),(1.,1.),(1.,1.),(1.,1.),(1.,1.),(1.,1.),(1.,1.),(1.,1.),(1.,1.),(1.,
1.),(1.,1.)))
REPRESENTATION_ITEM('')
SURFACE()
);
#28=(
BOUNDED_SURFACE()
B_SPLINE_SURFACE(5,1,((#1371,#1372),(#1373,#1374),(#1375,#1376),(#1377,
#1378),(#1379,#1380),(#1381,#1382),(#1383,#1384),(#1385,#1386),(#1387,#1388),
(#1389,#1390),(#1391,#1392),(#1393,#1394),(#1395,#1396),(#1397,#1398),(#1399,
#1400),(#1401,#1402),(#1403,#1404),(#1405,#1406),(#1407,#1408),(#1409,#1410),
(#1411,#1412),(#1413,#1414),(#1415,#1416),(#1417,#1418),(#1419,#1420)),
 .UNSPECIFIED.,.F.,.F.,.F.)
B_SPLINE_SURFACE_WITH_KNOTS((6,1,1,1,1,1,1,1,1,1,1,1,1,1,1,1,1,1,1,1,6),
(2,2),(0.,0.05,0.1,0.15,0.2,0.25,0.3,0.35,0.4,0.45,0.5,0.55,0.6,0.65,0.7,
0.75,0.8,0.85,0.9,0.95,1.),(0.,36.),.UNSPECIFIED.)
GEOMETRIC_REPRESENTATION_ITEM()
RATIONAL_B_SPLINE_SURFACE(((1.,1.),(1.,1.),(1.,1.),(1.,1.),(1.,1.),(1.,
1.),(1.,1.),(1.,1.),(1.,1.),(1.,1.),(1.,1.),(1.,1.),(1.,1.),(1.,1.),(1.,
1.),(1.,1.),(1.,1.),(1.,1.),(1.,1.),(1.,1.),(1.,1.),(1.,1.),(1.,1.),(1.,
1.),(1.,1.)))
REPRESENTATION_ITEM('')
SURFACE()
);
#29=CIRCLE('',#729,10.);
#30=CIRCLE('',#730,10.);
#31=CYLINDRICAL_SURFACE('',#728,10.);
#32=FACE_OUTER_BOUND('',#67,.T.);
#33=FACE_OUTER_BOUND('',#68,.T.);
#34=FACE_OUTER_BOUND('',#69,.T.);
#35=FACE_OUTER_BOUND('',#70,.T.);
#36=FACE_OUTER_BOUND('',#71,.T.);
#37=FACE_OUTER_BOUND('',#72,.T.);
#38=FACE_OUTER_BOUND('',#73,.T.);
#39=FACE_OUTER_BOUND('',#74,.T.);
#40=FACE_OUTER_BOUND('',#75,.T.);
#41=FACE_OUTER_BOUND('',#76,.T.);
#42=FACE_OUTER_BOUND('',#77,.T.);
#43=FACE_OUTER_BOUND('',#78,.T.);
#44=FACE_OUTER_BOUND('',#79,.T.);
#45=FACE_OUTER_BOUND('',#80,.T.);
#46=FACE_OUTER_BOUND('',#81,.T.);
#47=FACE_OUTER_BOUND('',#82,.T.);
#48=FACE_OUTER_BOUND('',#83,.T.);
#49=FACE_OUTER_BOUND('',#84,.T.);
#50=FACE_OUTER_BOUND('',#85,.T.);
#51=FACE_OUTER_BOUND('',#86,.T.);
#52=FACE_OUTER_BOUND('',#87,.T.);
#53=FACE_OUTER_BOUND('',#88,.T.);
#54=FACE_OUTER_BOUND('',#89,.T.);
#55=FACE_OUTER_BOUND('',#90,.T.);
#56=FACE_OUTER_BOUND('',#91,.T.);
#57=FACE_OUTER_BOUND('',#92,.T.);
#58=FACE_OUTER_BOUND('',#93,.T.);
#59=FACE_OUTER_BOUND('',#94,.T.);
#60=FACE_OUTER_BOUND('',#95,.T.);
#61=FACE_OUTER_BOUND('',#96,.T.);
#62=FACE_OUTER_BOUND('',#97,.T.);
#63=FACE_OUTER_BOUND('',#98,.T.);
#64=FACE_OUTER_BOUND('',#99,.T.);
#65=FACE_OUTER_BOUND('',#100,.T.);
#66=FACE_OUTER_BOUND('',#102,.T.);
#67=EDGE_LOOP('',(#447,#448,#449,#450));
#68=EDGE_LOOP('',(#451,#452,#453,#454));
#69=EDGE_LOOP('',(#455,#456,#457,#458));
#70=EDGE_LOOP('',(#459,#460,#461,#462));
#71=EDGE_LOOP('',(#463,#464,#465,#466));
#72=EDGE_LOOP('',(#467,#468,#469,#470));
#73=EDGE_LOOP('',(#471,#472,#473,#474));
#74=EDGE_LOOP('',(#475,#476,#477,#478));
#75=EDGE_LOOP('',(#479,#480,#481,#482));
#76=EDGE_LOOP('',(#483,#484,#485,#486));
#77=EDGE_LOOP('',(#487,#488,#489,#490));
#78=EDGE_LOOP('',(#491,#492,#493,#494));
#79=EDGE_LOOP('',(#495,#496,#497,#498));
#80=EDGE_LOOP('',(#499,#500,#501,#502));
#81=EDGE_LOOP('',(#503,#504,#505,#506));
#82=EDGE_LOOP('',(#507,#508,#509,#510));
#83=EDGE_LOOP('',(#511,#512,#513,#514));
#84=EDGE_LOOP('',(#515,#516,#517,#518));
#85=EDGE_LOOP('',(#519,#520,#521,#522));
#86=EDGE_LOOP('',(#523,#524,#525,#526));
#87=EDGE_LOOP('',(#527,#528,#529,#530));
#88=EDGE_LOOP('',(#531,#532,#533,#534));
#89=EDGE_LOOP('',(#535,#536,#537,#538));
#90=EDGE_LOOP('',(#539,#540,#541,#542));
#91=EDGE_LOOP('',(#543,#544,#545,#546));
#92=EDGE_LOOP('',(#547,#548,#549,#550));
#93=EDGE_LOOP('',(#551,#552,#553,#554));
#94=EDGE_LOOP('',(#555,#556,#557,#558));
#95=EDGE_LOOP('',(#559,#560,#561,#562));
#96=EDGE_LOOP('',(#563,#564,#565,#566));
#97=EDGE_LOOP('',(#567,#568,#569,#570));
#98=EDGE_LOOP('',(#571,#572,#573,#574));
#99=EDGE_LOOP('',(#575,#576,#577,#578));
#100=EDGE_LOOP('',(#579,#580,#581,#582,#583,#584,#585,#586,#587,#588,#589,
#590,#591,#592,#593,#594,#595,#596,#597,#598,#599,#600,#601,#602,#603,#604,
#605,#606));
#101=EDGE_LOOP('',(#607,#608,#609,#610,#611));
#102=EDGE_LOOP('',(#612,#613,#614,#615,#616,#617,#618,#619,#620,#621,#622,
#623,#624,#625,#626,#627,#628,#629,#630,#631,#632,#633,#634,#635,#636,#637,
#638,#639));
#103=EDGE_LOOP('',(#640,#641,#642,#643,#644));
#104=LINE('',#918,#193);
#105=LINE('',#920,#194);
#106=LINE('',#922,#195);
#107=LINE('',#923,#196);
#108=LINE('',#926,#197);
#109=LINE('',#928,#198);
#110=LINE('',#929,#199);
#111=LINE('',#932,#200);
#112=LINE('',#934,#201);
#113=LINE('',#935,#202);
#114=LINE('',#938,#203);
#115=LINE('',#940,#204);
#116=LINE('',#941,#205);
#117=LINE('',#948,#206);
#118=LINE('',#950,#207);
#119=LINE('',#952,#208);
#120=LINE('',#953,#209);
#121=LINE('',#1056,#210);
#122=LINE('',#1059,#211);
#123=LINE('',#1061,#212);
#124=LINE('',#1062,#213);
#125=LINE('',#1065,#214);
#126=LINE('',#1067,#215);
#127=LINE('',#1068,#216);
#128=LINE('',#1071,#217);
#129=LINE('',#1073,#218);
#130=LINE('',#1074,#219);
#131=LINE('',#1077,#220);
#132=LINE('',#1079,#221);
#133=LINE('',#1080,#222);
#134=LINE('',#1083,#223);
#135=LINE('',#1085,#224);
#136=LINE('',#1086,#225);
#137=LINE('',#1089,#226);
#138=LINE('',#1091,#227);
#139=LINE('',#1092,#228);
#140=LINE('',#1195,#229);
#141=LINE('',#1198,#230);
#142=LINE('',#1200,#231);
#143=LINE('',#1201,#232);
#144=LINE('',#1204,#233);
#145=LINE('',#1206,#234);
#146=LINE('',#1207,#235);
#147=LINE('',#1210,#236);
#148=LINE('',#1212,#237);
#149=LINE('',#1213,#238);
#150=LINE('',#1216,#239);
#151=LINE('',#1218,#240);
#152=LINE('',#1219,#241);
#153=LINE('',#1222,#242);
#154=LINE('',#1224,#243);
#155=LINE('',#1225,#244);
#156=LINE('',#1228,#245);
#157=LINE('',#1230,#246);
#158=LINE('',#1231,#247);
#159=LINE('',#1334,#248);
#160=LINE('',#1337,#249);
#161=LINE('',#1339,#250);
#162=LINE('',#1340,#251);
#163=LINE('',#1343,#252);
#164=LINE('',#1345,#253);
#165=LINE('',#1346,#254);
#166=LINE('',#1349,#255);
#167=LINE('',#1351,#256);
#168=LINE('',#1352,#257);
#169=LINE('',#1355,#258);
#170=LINE('',#1357,#259);
#171=LINE('',#1358,#260);
#172=LINE('',#1361,#261);
#173=LINE('',#1363,#262);
#174=LINE('',#1364,#263);
#175=LINE('',#1367,#264);
#176=LINE('',#1369,#265);
#177=LINE('',#1370,#266);
#178=LINE('',#1473,#267);
#179=LINE('',#1476,#268);
#180=LINE('',#1478,#269);
#181=LINE('',#1479,#270);
#182=LINE('',#1482,#271);
#183=LINE('',#1484,#272);
#184=LINE('',#1485,#273);
#185=LINE('',#1488,#274);
#186=LINE('',#1490,#275);
#187=LINE('',#1491,#276);
#188=LINE('',#1494,#277);
#189=LINE('',#1496,#278);
#190=LINE('',#1497,#279);
#191=LINE('',#1499,#280);
#192=LINE('',#1500,#281);
#193=VECTOR('',#761,10.);
#194=VECTOR('',#762,10.);
#195=VECTOR('',#763,10.);
#196=VECTOR('',#764,10.);
#197=VECTOR('',#767,10.);
#198=VECTOR('',#768,10.);
#199=VECTOR('',#769,10.);
#200=VECTOR('',#772,10.);
#201=VECTOR('',#773,10.);
#202=VECTOR('',#774,10.);
#203=VECTOR('',#777,10.);
#204=VECTOR('',#778,10.);
#205=VECTOR('',#779,10.);
#206=VECTOR('',#788,10.);
#207=VECTOR('',#789,10.);
#208=VECTOR('',#790,10.);
#209=VECTOR('',#791,10.);
#210=VECTOR('',#792,10.);
#211=VECTOR('',#795,10.);
#212=VECTOR('',#796,10.);
#213=VECTOR('',#797,10.);
#214=VECTOR('',#800,10.);
#215=VECTOR('',#801,10.);
#216=VECTOR('',#802,10.);
#217=VECTOR('',#805,10.);
#218=VECTOR('',#806,10.);
#219=VECTOR('',#807,10.);
#220=VECTOR('',#810,10.);
#221=VECTOR('',#811,10.);
#222=VECTOR('',#812,10.);
#223=VECTOR('',#815,10.);
#224=VECTOR('',#816,10.);
#225=VECTOR('',#817,10.);
#226=VECTOR('',#820,10.);
#227=VECTOR('',#821,10.);
#228=VECTOR('',#822,10.);
#229=VECTOR('',#823,10.);
#230=VECTOR('',#826,10.);
#231=VECTOR('',#827,10.);
#232=VECTOR('',#828,10.);
#233=VECTOR('',#831,10.);
#234=VECTOR('',#832,10.);
#235=VECTOR('',#833,10.);
#236=VECTOR('',#836,10.);
#237=VECTOR('',#837,10.);
#238=VECTOR('',#838,10.);
#239=VECTOR('',#841,10.);
#240=VECTOR('',#842,10.);
#241=VECTOR('',#843,10.);
#242=VECTOR('',#846,10.);
#243=VECTOR('',#847,10.);
#244=VECTOR('',#848,10.);
#245=VECTOR('',#851,10.);
#246=VECTOR('',#852,10.);
#247=VECTOR('',#853,10.);
#248=VECTOR('',#854,10.);
#249=VECTOR('',#857,10.);
#250=VECTOR('',#858,10.);
#251=VECTOR('',#859,10.);
#252=VECTOR('',#862,10.);
#253=VECTOR('',#863,10.);
#254=VECTOR('',#864,10.);
#255=VECTOR('',#867,10.);
#256=VECTOR('',#868,10.);
#257=VECTOR('',#869,10.);
#258=VECTOR('',#872,10.);
#259=VECTOR('',#873,10.);
#260=VECTOR('',#874,10.);
#261=VECTOR('',#877,10.);
#262=VECTOR('',#878,10.);
#263=VECTOR('',#879,10.);
#264=VECTOR('',#882,10.);
#265=VECTOR('',#883,10.);
#266=VECTOR('',#884,10.);
#267=VECTOR('',#885,10.);
#268=VECTOR('',#888,10.);
#269=VECTOR('',#889,10.);
#270=VECTOR('',#890,10.);
#271=VECTOR('',#893,10.);
#272=VECTOR('',#894,10.);
#273=VECTOR('',#895,10.);
#274=VECTOR('',#898,10.);
#275=VECTOR('',#899,10.);
#276=VECTOR('',#900,10.);
#277=VECTOR('',#903,10.);
#278=VECTOR('',#904,10.);
#279=VECTOR('',#905,10.);
#280=VECTOR('',#908,10.);
#281=VECTOR('',#909,10.);
#282=VERTEX_POINT('',#916);
#283=VERTEX_POINT('',#917);
#284=VERTEX_POINT('',#919);
#285=VERTEX_POINT('',#921);
#286=VERTEX_POINT('',#925);
#287=VERTEX_POINT('',#927);
#288=VERTEX_POINT('',#931);
#289=VERTEX_POINT('',#933);
#290=VERTEX_POINT('',#937);
#291=VERTEX_POINT('',#939);
#292=VERTEX_POINT('',#946);
#293=VERTEX_POINT('',#947);
#294=VERTEX_POINT('',#949);
#295=VERTEX_POINT('',#951);
#296=VERTEX_POINT('',#1004);
#297=VERTEX_POINT('',#1030);
#298=VERTEX_POINT('',#1058);
#299=VERTEX_POINT('',#1060);
#300=VERTEX_POINT('',#1064);
#301=VERTEX_POINT('',#1066);
#302=VERTEX_POINT('',#1070);
#303=VERTEX_POINT('',#1072);
#304=VERTEX_POINT('',#1076);
#305=VERTEX_POINT('',#1078);
#306=VERTEX_POINT('',#1082);
#307=VERTEX_POINT('',#1084);
#308=VERTEX_POINT('',#1088);
#309=VERTEX_POINT('',#1090);
#310=VERTEX_POINT('',#1143);
#311=VERTEX_POINT('',#1169);
#312=VERTEX_POINT('',#1197);
#313=VERTEX_POINT('',#1199);
#314=VERTEX_POINT('',#1203);
#315=VERTEX_POINT('',#1205);
#316=VERTEX_POINT('',#1209);
#317=VERTEX_POINT('',#1211);
#318=VERTEX_POINT('',#1215);
#319=VERTEX_POINT('',#1217);
#320=VERTEX_POINT('',#1221);
#321=VERTEX_POINT('',#1223);
#322=VERTEX_POINT('',#1227);
#323=VERTEX_POINT('',#1229);
#324=VERTEX_POINT('',#1282);
#325=VERTEX_POINT('',#1308);
#326=VERTEX_POINT('',#1336);
#327=VERTEX_POINT('',#1338);
#328=VERTEX_POINT('',#1342);
#329=VERTEX_POINT('',#1344);
#330=VERTEX_POINT('',#1348);
#331=VERTEX_POINT('',#1350);
#332=VERTEX_POINT('',#1354);
#333=VERTEX_POINT('',#1356);
#334=VERTEX_POINT('',#1360);
#335=VERTEX_POINT('',#1362);
#336=VERTEX_POINT('',#1366);
#337=VERTEX_POINT('',#1368);
#338=VERTEX_POINT('',#1421);
#339=VERTEX_POINT('',#1447);
#340=VERTEX_POINT('',#1475);
#341=VERTEX_POINT('',#1477);
#342=VERTEX_POINT('',#1481);
#343=VERTEX_POINT('',#1483);
#344=VERTEX_POINT('',#1487);
#345=VERTEX_POINT('',#1489);
#346=VERTEX_POINT('',#1493);
#347=VERTEX_POINT('',#1495);
#348=EDGE_CURVE('',#282,#283,#104,.T.);
#349=EDGE_CURVE('',#283,#284,#105,.T.);
#350=EDGE_CURVE('',#285,#284,#106,.T.);
#351=EDGE_CURVE('',#282,#285,#107,.T.);
#352=EDGE_CURVE('',#286,#282,#108,.T.);
#353=EDGE_CURVE('',#287,#285,#109,.T.);
#354=EDGE_CURVE('',#286,#287,#110,.T.);
#355=EDGE_CURVE('',#288,#286,#111,.T.);
#356=EDGE_CURVE('',#289,#287,#112,.T.);
#357=EDGE_CURVE('',#288,#289,#113,.T.);
#358=EDGE_CURVE('',#290,#288,#114,.T.);
#359=EDGE_CURVE('',#291,#289,#115,.T.);
#360=EDGE_CURVE('',#290,#291,#116,.T.);
#361=EDGE_CURVE('',#283,#290,#29,.T.);
#362=EDGE_CURVE('',#284,#291,#30,.T.);
#363=EDGE_CURVE('',#292,#293,#117,.T.);
#364=EDGE_CURVE('',#292,#294,#118,.T.);
#365=EDGE_CURVE('',#295,#294,#119,.T.);
#366=EDGE_CURVE('',#293,#295,#120,.T.);
#367=EDGE_CURVE('',#296,#293,#17,.T.);
#368=EDGE_CURVE('',#297,#295,#18,.T.);
#369=EDGE_CURVE('',#296,#297,#121,.T.);
#370=EDGE_CURVE('',#298,#296,#122,.T.);
#371=EDGE_CURVE('',#299,#297,#123,.T.);
#372=EDGE_CURVE('',#298,#299,#124,.T.);
#373=EDGE_CURVE('',#298,#300,#125,.T.);
#374=EDGE_CURVE('',#301,#299,#126,.T.);
#375=EDGE_CURVE('',#300,#301,#127,.T.);
#376=EDGE_CURVE('',#302,#300,#128,.T.);
#377=EDGE_CURVE('',#303,#301,#129,.T.);
#378=EDGE_CURVE('',#302,#303,#130,.T.);
#379=EDGE_CURVE('',#304,#302,#131,.T.);
#380=EDGE_CURVE('',#305,#303,#132,.T.);
#381=EDGE_CURVE('',#304,#305,#133,.T.);
#382=EDGE_CURVE('',#304,#306,#134,.T.);
#383=EDGE_CURVE('',#307,#305,#135,.T.);
#384=EDGE_CURVE('',#306,#307,#136,.T.);
#385=EDGE_CURVE('',#306,#308,#137,.T.);
#386=EDGE_CURVE('',#309,#307,#138,.T.);
#387=EDGE_CURVE('',#308,#309,#139,.T.);
#388=EDGE_CURVE('',#308,#310,#19,.T.);
#389=EDGE_CURVE('',#311,#309,#20,.T.);
#390=EDGE_CURVE('',#310,#311,#140,.T.);
#391=EDGE_CURVE('',#312,#310,#141,.T.);
#392=EDGE_CURVE('',#313,#311,#142,.T.);
#393=EDGE_CURVE('',#312,#313,#143,.T.);
#394=EDGE_CURVE('',#314,#312,#144,.T.);
#395=EDGE_CURVE('',#315,#313,#145,.T.);
#396=EDGE_CURVE('',#314,#315,#146,.T.);
#397=EDGE_CURVE('',#316,#314,#147,.T.);
#398=EDGE_CURVE('',#317,#315,#148,.T.);
#399=EDGE_CURVE('',#316,#317,#149,.T.);
#400=EDGE_CURVE('',#318,#316,#150,.T.);
#401=EDGE_CURVE('',#319,#317,#151,.T.);
#402=EDGE_CURVE('',#318,#319,#152,.T.);
#403=EDGE_CURVE('',#320,#318,#153,.T.);
#404=EDGE_CURVE('',#321,#319,#154,.T.);
#405=EDGE_CURVE('',#320,#321,#155,.T.);
#406=EDGE_CURVE('',#320,#322,#156,.T.);
#407=EDGE_CURVE('',#323,#321,#157,.T.);
#408=EDGE_CURVE('',#322,#323,#158,.T.);
#409=EDGE_CURVE('',#322,#324,#21,.T.);
#410=EDGE_CURVE('',#325,#323,#22,.T.);
#411=EDGE_CURVE('',#324,#325,#159,.T.);
#412=EDGE_CURVE('',#326,#324,#160,.T.);
#413=EDGE_CURVE('',#327,#325,#161,.T.);
#414=EDGE_CURVE('',#326,#327,#162,.T.);
#415=EDGE_CURVE('',#326,#328,#163,.T.);
#416=EDGE_CURVE('',#329,#327,#164,.T.);
#417=EDGE_CURVE('',#328,#329,#165,.T.);
#418=EDGE_CURVE('',#330,#328,#166,.T.);
#419=EDGE_CURVE('',#331,#329,#167,.T.);
#420=EDGE_CURVE('',#330,#331,#168,.T.);
#421=EDGE_CURVE('',#332,#330,#169,.T.);
#422=EDGE_CURVE('',#333,#331,#170,.T.);
#423=EDGE_CURVE('',#332,#333,#171,.T.);
#424=EDGE_CURVE('',#332,#334,#172,.T.);
#425=EDGE_CURVE('',#335,#333,#173,.T.);
#426=EDGE_CURVE('',#334,#335,#174,.T.);
#427=EDGE_CURVE('',#334,#336,#175,.T.);
#428=EDGE_CURVE('',#337,#335,#176,.T.);
#429=EDGE_CURVE('',#336,#337,#177,.T.);
#430=EDGE_CURVE('',#338,#336,#23,.T.);
#431=EDGE_CURVE('',#339,#337,#24,.T.);
#432=EDGE_CURVE('',#338,#339,#178,.T.);
#433=EDGE_CURVE('',#340,#338,#179,.T.);
#434=EDGE_CURVE('',#341,#339,#180,.T.);
#435=EDGE_CURVE('',#340,#341,#181,.T.);
#436=EDGE_CURVE('',#342,#340,#182,.T.);
#437=EDGE_CURVE('',#343,#341,#183,.T.);
#438=EDGE_CURVE('',#342,#343,#184,.T.);
#439=EDGE_CURVE('',#344,#342,#185,.T.);
#440=EDGE_CURVE('',#345,#343,#186,.T.);
#441=EDGE_CURVE('',#344,#345,#187,.T.);
#442=EDGE_CURVE('',#346,#344,#188,.T.);
#443=EDGE_CURVE('',#347,#345,#189,.T.);
#444=EDGE_CURVE('',#346,#347,#190,.T.);
#445=EDGE_CURVE('',#292,#346,#191,.T.);
#446=EDGE_CURVE('',#294,#347,#192,.T.);
#447=ORIENTED_EDGE('',*,*,#348,.T.);
#448=ORIENTED_EDGE('',*,*,#349,.T.);
#449=ORIENTED_EDGE('',*,*,#350,.F.);
#450=ORIENTED_EDGE('',*,*,#351,.F.);
#451=ORIENTED_EDGE('',*,*,#352,.T.);
#452=ORIENTED_EDGE('',*,*,#351,.T.);
#453=ORIENTED_EDGE('',*,*,#353,.F.);
#454=ORIENTED_EDGE('',*,*,#354,.F.);
#455=ORIENTED_EDGE('',*,*,#355,.T.);
#456=ORIENTED_EDGE('',*,*,#354,.T.);
#457=ORIENTED_EDGE('',*,*,#356,.F.);
#458=ORIENTED_EDGE('',*,*,#357,.F.);
#459=ORIENTED_EDGE('',*,*,#358,.T.);
#460=ORIENTED_EDGE('',*,*,#357,.T.);
#461=ORIENTED_EDGE('',*,*,#359,.F.);
#462=ORIENTED_EDGE('',*,*,#360,.F.);
#463=ORIENTED_EDGE('',*,*,#361,.T.);
#464=ORIENTED_EDGE('',*,*,#360,.T.);
#465=ORIENTED_EDGE('',*,*,#362,.F.);
#466=ORIENTED_EDGE('',*,*,#349,.F.);
#467=ORIENTED_EDGE('',*,*,#363,.F.);
#468=ORIENTED_EDGE('',*,*,#364,.T.);
#469=ORIENTED_EDGE('',*,*,#365,.F.);
#470=ORIENTED_EDGE('',*,*,#366,.F.);
#471=ORIENTED_EDGE('',*,*,#367,.T.);
#472=ORIENTED_EDGE('',*,*,#366,.T.);
#473=ORIENTED_EDGE('',*,*,#368,.F.);
#474=ORIENTED_EDGE('',*,*,#369,.F.);
#475=ORIENTED_EDGE('',*,*,#370,.T.);
#476=ORIENTED_EDGE('',*,*,#369,.T.);
#477=ORIENTED_EDGE('',*,*,#371,.F.);
#478=ORIENTED_EDGE('',*,*,#372,.F.);
#479=ORIENTED_EDGE('',*,*,#373,.F.);
#480=ORIENTED_EDGE('',*,*,#372,.T.);
#481=ORIENTED_EDGE('',*,*,#374,.F.);
#482=ORIENTED_EDGE('',*,*,#375,.F.);
#483=ORIENTED_EDGE('',*,*,#376,.T.);
#484=ORIENTED_EDGE('',*,*,#375,.T.);
#485=ORIENTED_EDGE('',*,*,#377,.F.);
#486=ORIENTED_EDGE('',*,*,#378,.F.);
#487=ORIENTED_EDGE('',*,*,#379,.T.);
#488=ORIENTED_EDGE('',*,*,#378,.T.);
#489=ORIENTED_EDGE('',*,*,#380,.F.);
#490=ORIENTED_EDGE('',*,*,#381,.F.);
#491=ORIENTED_EDGE('',*,*,#382,.F.);
#492=ORIENTED_EDGE('',*,*,#381,.T.);
#493=ORIENTED_EDGE('',*,*,#383,.F.);
#494=ORIENTED_EDGE('',*,*,#384,.F.);
#495=ORIENTED_EDGE('',*,*,#385,.F.);
#496=ORIENTED_EDGE('',*,*,#384,.T.);
#497=ORIENTED_EDGE('',*,*,#386,.F.);
#498=ORIENTED_EDGE('',*,*,#387,.F.);
#499=ORIENTED_EDGE('',*,*,#388,.F.);
#500=ORIENTED_EDGE('',*,*,#387,.T.);
#501=ORIENTED_EDGE('',*,*,#389,.F.);
#502=ORIENTED_EDGE('',*,*,#390,.F.);
#503=ORIENTED_EDGE('',*,*,#391,.T.);
#504=ORIENTED_EDGE('',*,*,#390,.T.);
#505=ORIENTED_EDGE('',*,*,#392,.F.);
#506=ORIENTED_EDGE('',*,*,#393,.F.);
#507=ORIENTED_EDGE('',*,*,#394,.T.);
#508=ORIENTED_EDGE('',*,*,#393,.T.);
#509=ORIENTED_EDGE('',*,*,#395,.F.);
#510=ORIENTED_EDGE('',*,*,#396,.F.);
#511=ORIENTED_EDGE('',*,*,#397,.T.);
#512=ORIENTED_EDGE('',*,*,#396,.T.);
#513=ORIENTED_EDGE('',*,*,#398,.F.);
#514=ORIENTED_EDGE('',*,*,#399,.F.);
#515=ORIENTED_EDGE('',*,*,#400,.T.);
#516=ORIENTED_EDGE('',*,*,#399,.T.);
#517=ORIENTED_EDGE('',*,*,#401,.F.);
#518=ORIENTED_EDGE('',*,*,#402,.F.);
#519=ORIENTED_EDGE('',*,*,#403,.T.);
#520=ORIENTED_EDGE('',*,*,#402,.T.);
#521=ORIENTED_EDGE('',*,*,#404,.F.);
#522=ORIENTED_EDGE('',*,*,#405,.F.);
#523=ORIENTED_EDGE('',*,*,#406,.F.);
#524=ORIENTED_EDGE('',*,*,#405,.T.);
#525=ORIENTED_EDGE('',*,*,#407,.F.);
#526=ORIENTED_EDGE('',*,*,#408,.F.);
#527=ORIENTED_EDGE('',*,*,#409,.F.);
#528=ORIENTED_EDGE('',*,*,#408,.T.);
#529=ORIENTED_EDGE('',*,*,#410,.F.);
#530=ORIENTED_EDGE('',*,*,#411,.F.);
#531=ORIENTED_EDGE('',*,*,#412,.T.);
#532=ORIENTED_EDGE('',*,*,#411,.T.);
#533=ORIENTED_EDGE('',*,*,#413,.F.);
#534=ORIENTED_EDGE('',*,*,#414,.F.);
#535=ORIENTED_EDGE('',*,*,#415,.F.);
#536=ORIENTED_EDGE('',*,*,#414,.T.);
#537=ORIENTED_EDGE('',*,*,#416,.F.);
#538=ORIENTED_EDGE('',*,*,#417,.F.);
#539=ORIENTED_EDGE('',*,*,#418,.T.);
#540=ORIENTED_EDGE('',*,*,#417,.T.);
#541=ORIENTED_EDGE('',*,*,#419,.F.);
#542=ORIENTED_EDGE('',*,*,#420,.F.);
#543=ORIENTED_EDGE('',*,*,#421,.T.);
#544=ORIENTED_EDGE('',*,*,#420,.T.);
#545=ORIENTED_EDGE('',*,*,#422,.F.);
#546=ORIENTED_EDGE('',*,*,#423,.F.);
#547=ORIENTED_EDGE('',*,*,#424,.F.);
#548=ORIENTED_EDGE('',*,*,#423,.T.);
#549=ORIENTED_EDGE('',*,*,#425,.F.);
#550=ORIENTED_EDGE('',*,*,#426,.F.);
#551=ORIENTED_EDGE('',*,*,#427,.F.);
#552=ORIENTED_EDGE('',*,*,#426,.T.);
#553=ORIENTED_EDGE('',*,*,#428,.F.);
#554=ORIENTED_EDGE('',*,*,#429,.F.);
#555=ORIENTED_EDGE('',*,*,#430,.T.);
#556=ORIENTED_EDGE('',*,*,#429,.T.);
#557=ORIENTED_EDGE('',*,*,#431,.F.);
#558=ORIENTED_EDGE('',*,*,#432,.F.);
#559=ORIENTED_EDGE('',*,*,#433,.T.);
#560=ORIENTED_EDGE('',*,*,#432,.T.);
#561=ORIENTED_EDGE('',*,*,#434,.F.);
#562=ORIENTED_EDGE('',*,*,#435,.F.);
#563=ORIENTED_EDGE('',*,*,#436,.T.);
#564=ORIENTED_EDGE('',*,*,#435,.T.);
#565=ORIENTED_EDGE('',*,*,#437,.F.);
#566=ORIENTED_EDGE('',*,*,#438,.F.);
#567=ORIENTED_EDGE('',*,*,#439,.T.);
#568=ORIENTED_EDGE('',*,*,#438,.T.);
#569=ORIENTED_EDGE('',*,*,#440,.F.);
#570=ORIENTED_EDGE('',*,*,#441,.F.);
#571=ORIENTED_EDGE('',*,*,#442,.T.);
#572=ORIENTED_EDGE('',*,*,#441,.T.);
#573=ORIENTED_EDGE('',*,*,#443,.F.);
#574=ORIENTED_EDGE('',*,*,#444,.F.);
#575=ORIENTED_EDGE('',*,*,#445,.T.);
#576=ORIENTED_EDGE('',*,*,#444,.T.);
#577=ORIENTED_EDGE('',*,*,#446,.F.);
#578=ORIENTED_EDGE('',*,*,#364,.F.);
#579=ORIENTED_EDGE('',*,*,#446,.T.);
#580=ORIENTED_EDGE('',*,*,#443,.T.);
#581=ORIENTED_EDGE('',*,*,#440,.T.);
#582=ORIENTED_EDGE('',*,*,#437,.T.);
#583=ORIENTED_EDGE('',*,*,#434,.T.);
#584=ORIENTED_EDGE('',*,*,#431,.T.);
#585=ORIENTED_EDGE('',*,*,#428,.T.);
#586=ORIENTED_EDGE('',*,*,#425,.T.);
#587=ORIENTED_EDGE('',*,*,#422,.T.);
#588=ORIENTED_EDGE('',*,*,#419,.T.);
#589=ORIENTED_EDGE('',*,*,#416,.T.);
#590=ORIENTED_EDGE('',*,*,#413,.T.);
#591=ORIENTED_EDGE('',*,*,#410,.T.);
#592=ORIENTED_EDGE('',*,*,#407,.T.);
#593=ORIENTED_EDGE('',*,*,#404,.T.);
#594=ORIENTED_EDGE('',*,*,#401,.T.);
#595=ORIENTED_EDGE('',*,*,#398,.T.);
#596=ORIENTED_EDGE('',*,*,#395,.T.);
#597=ORIENTED_EDGE('',*,*,#392,.T.);
#598=ORIENTED_EDGE('',*,*,#389,.T.);
#599=ORIENTED_EDGE('',*,*,#386,.T.);
#600=ORIENTED_EDGE('',*,*,#383,.T.);
#601=ORIENTED_EDGE('',*,*,#380,.T.);
#602=ORIENTED_EDGE('',*,*,#377,.T.);
#603=ORIENTED_EDGE('',*,*,#374,.T.);
#604=ORIENTED_EDGE('',*,*,#371,.T.);
#605=ORIENTED_EDGE('',*,*,#368,.T.);
#606=ORIENTED_EDGE('',*,*,#365,.T.);
#607=ORIENTED_EDGE('',*,*,#362,.T.);
#608=ORIENTED_EDGE('',*,*,#359,.T.);
#609=ORIENTED_EDGE('',*,*,#356,.T.);
#610=ORIENTED_EDGE('',*,*,#353,.T.);
#611=ORIENTED_EDGE('',*,*,#350,.T.);
#612=ORIENTED_EDGE('',*,*,#445,.F.);
#613=ORIENTED_EDGE('',*,*,#363,.T.);
#614=ORIENTED_EDGE('',*,*,#367,.F.);
#615=ORIENTED_EDGE('',*,*,#370,.F.);
#616=ORIENTED_EDGE('',*,*,#373,.T.);
#617=ORIENTED_EDGE('',*,*,#376,.F.);
#618=ORIENTED_EDGE('',*,*,#379,.F.);
#619=ORIENTED_EDGE('',*,*,#382,.T.);
#620=ORIENTED_EDGE('',*,*,#385,.T.);
#621=ORIENTED_EDGE('',*,*,#388,.T.);
#622=ORIENTED_EDGE('',*,*,#391,.F.);
#623=ORIENTED_EDGE('',*,*,#394,.F.);
#624=ORIENTED_EDGE('',*,*,#397,.F.);
#625=ORIENTED_EDGE('',*,*,#400,.F.);
#626=ORIENTED_EDGE('',*,*,#403,.F.);
#627=ORIENTED_EDGE('',*,*,#406,.T.);
#628=ORIENTED_EDGE('',*,*,#409,.T.);
#629=ORIENTED_EDGE('',*,*,#412,.F.);
#630=ORIENTED_EDGE('',*,*,#415,.T.);
#631=ORIENTED_EDGE('',*,*,#418,.F.);
#632=ORIENTED_EDGE('',*,*,#421,.F.);
#633=ORIENTED_EDGE('',*,*,#424,.T.);
#634=ORIENTED_EDGE('',*,*,#427,.T.);
#635=ORIENTED_EDGE('',*,*,#430,.F.);
#636=ORIENTED_EDGE('',*,*,#433,.F.);
#637=ORIENTED_EDGE('',*,*,#436,.F.);
#638=ORIENTED_EDGE('',*,*,#439,.F.);
#639=ORIENTED_EDGE('',*,*,#442,.F.);
#640=ORIENTED_EDGE('',*,*,#361,.F.);
#641=ORIENTED_EDGE('',*,*,#348,.F.);
#642=ORIENTED_EDGE('',*,*,#352,.F.);
#643=ORIENTED_EDGE('',*,*,#355,.F.);
#644=ORIENTED_EDGE('',*,*,#358,.F.);
#645=PLANE('',#724);
#646=PLANE('',#725);
#647=PLANE('',#726);
#648=PLANE('',#727);
#649=PLANE('',#731);
#650=PLANE('',#732);
#651=PLANE('',#733);
#652=PLANE('',#734);
#653=PLANE('',#735);
#654=PLANE('',#736);
#655=PLANE('',#737);
#656=PLANE('',#738);
#657=PLANE('',#739);
#658=PLANE('',#740);
#659=PLANE('',#741);
#660=PLANE('',#742);
#661=PLANE('',#743);
#662=PLANE('',#744);
#663=PLANE('',#745);
#664=PLANE('',#746);
#665=PLANE('',#747);
#666=PLANE('',#748);
#667=PLANE('',#749);
#668=PLANE('',#750);
#669=PLANE('',#751);
#670=PLANE('',#752);
#671=PLANE('',#753);
#672=PLANE('',#754);
#673=PLANE('',#755);
#674=PLANE('',#756);
#675=ADVANCED_FACE('',(#32),#645,.T.);
#676=ADVANCED_FACE('',(#33),#646,.T.);
#677=ADVANCED_FACE('',(#34),#647,.T.);
#678=ADVANCED_FACE('',(#35),#648,.T.);
#679=ADVANCED_FACE('',(#36),#31,.F.);
#680=ADVANCED_FACE('',(#37),#649,.T.);
#681=ADVANCED_FACE('',(#38),#25,.T.);
#682=ADVANCED_FACE('',(#39),#650,.T.);
#683=ADVANCED_FACE('',(#40),#651,.T.);
#684=ADVANCED_FACE('',(#41),#652,.T.);
#685=ADVANCED_FACE('',(#42),#653,.T.);
#686=ADVANCED_FACE('',(#43),#654,.T.);
#687=ADVANCED_FACE('',(#44),#655,.T.);
#688=ADVANCED_FACE('',(#45),#26,.T.);
#689=ADVANCED_FACE('',(#46),#656,.T.);
#690=ADVANCED_FACE('',(#47),#657,.T.);
#691=ADVANCED_FACE('',(#48),#658,.T.);
#692=ADVANCED_FACE('',(#49),#659,.T.);
#693=ADVANCED_FACE('',(#50),#660,.T.);
#694=ADVANCED_FACE('',(#51),#661,.T.);
#695=ADVANCED_FACE('',(#52),#27,.T.);
#696=ADVANCED_FACE('',(#53),#662,.T.);
#697=ADVANCED_FACE('',(#54),#663,.T.);
#698=ADVANCED_FACE('',(#55),#664,.T.);
#699=ADVANCED_FACE('',(#56),#665,.T.);
#700=ADVANCED_FACE('',(#57),#666,.T.);
#701=ADVANCED_FACE('',(#58),#667,.T.);
#702=ADVANCED_FACE('',(#59),#28,.T.);
#703=ADVANCED_FACE('',(#60),#668,.T.);
#704=ADVANCED_FACE('',(#61),#669,.T.);
#705=ADVANCED_FACE('',(#62),#670,.T.);
#706=ADVANCED_FACE('',(#63),#671,.T.);
#707=ADVANCED_FACE('',(#64),#672,.T.);
#708=ADVANCED_FACE('',(#65,#15),#673,.T.);
#709=ADVANCED_FACE('',(#66,#16),#674,.F.);
#710=CLOSED_SHELL('',(#675,#676,#677,#678,#679,#680,#681,#682,#683,#684,
#685,#686,#687,#688,#689,#690,#691,#692,#693,#694,#695,#696,#697,#698,#699,
#700,#701,#702,#703,#704,#705,#706,#707,#708,#709));
#711=DERIVED_UNIT_ELEMENT(#713,1.);
#712=DERIVED_UNIT_ELEMENT(#1508,-3.);
#713=(
MASS_UNIT()
NAMED_UNIT(*)
SI_UNIT(.KILO.,.GRAM.)
);
#714=DERIVED_UNIT((#711,#712));
#715=MEASURE_REPRESENTATION_ITEM('density measure',
POSITIVE_RATIO_MEASURE(7850.),#714);
#716=PROPERTY_DEFINITION_REPRESENTATION(#721,#718);
#717=PROPERTY_DEFINITION_REPRESENTATION(#722,#719);
#718=REPRESENTATION('material name',(#720),#1505);
#719=REPRESENTATION('density',(#715),#1505);
#720=DESCRIPTIVE_REPRESENTATION_ITEM('Steel','Steel');
#721=PROPERTY_DEFINITION('material property','material name',#1515);
#722=PROPERTY_DEFINITION('material property','density of part',#1515);
#723=AXIS2_PLACEMENT_3D('',#914,#757,#758);
#724=AXIS2_PLACEMENT_3D('',#915,#759,#760);
#725=AXIS2_PLACEMENT_3D('',#924,#765,#766);
#726=AXIS2_PLACEMENT_3D('',#930,#770,#771);
#727=AXIS2_PLACEMENT_3D('',#936,#775,#776);
#728=AXIS2_PLACEMENT_3D('',#942,#780,#781);
#729=AXIS2_PLACEMENT_3D('',#943,#782,#783);
#730=AXIS2_PLACEMENT_3D('',#944,#784,#785);
#731=AXIS2_PLACEMENT_3D('',#945,#786,#787);
#732=AXIS2_PLACEMENT_3D('',#1057,#793,#794);
#733=AXIS2_PLACEMENT_3D('',#1063,#798,#799);
#734=AXIS2_PLACEMENT_3D('',#1069,#803,#804);
#735=AXIS2_PLACEMENT_3D('',#1075,#808,#809);
#736=AXIS2_PLACEMENT_3D('',#1081,#813,#814);
#737=AXIS2_PLACEMENT_3D('',#1087,#818,#819);
#738=AXIS2_PLACEMENT_3D('',#1196,#824,#825);
#739=AXIS2_PLACEMENT_3D('',#1202,#829,#830);
#740=AXIS2_PLACEMENT_3D('',#1208,#834,#835);
#741=AXIS2_PLACEMENT_3D('',#1214,#839,#840);
#742=AXIS2_PLACEMENT_3D('',#1220,#844,#845);
#743=AXIS2_PLACEMENT_3D('',#1226,#849,#850);
#744=AXIS2_PLACEMENT_3D('',#1335,#855,#856);
#745=AXIS2_PLACEMENT_3D('',#1341,#860,#861);
#746=AXIS2_PLACEMENT_3D('',#1347,#865,#866);
#747=AXIS2_PLACEMENT_3D('',#1353,#870,#871);
#748=AXIS2_PLACEMENT_3D('',#1359,#875,#876);
#749=AXIS2_PLACEMENT_3D('',#1365,#880,#881);
#750=AXIS2_PLACEMENT_3D('',#1474,#886,#887);
#751=AXIS2_PLACEMENT_3D('',#1480,#891,#892);
#752=AXIS2_PLACEMENT_3D('',#1486,#896,#897);
#753=AXIS2_PLACEMENT_3D('',#1492,#901,#902);
#754=AXIS2_PLACEMENT_3D('',#1498,#906,#907);
#755=AXIS2_PLACEMENT_3D('',#1501,#910,#911);
#756=AXIS2_PLACEMENT_3D('',#1502,#912,#913);
#757=DIRECTION('axis',(0.,0.,1.));
#758=DIRECTION('refdir',(1.,0.,0.));
#759=DIRECTION('center_axis',(-1.,0.,2.44196471107123E-15));
#760=DIRECTION('ref_axis',(2.44196471107123E-15,0.,1.));
#761=DIRECTION('',(2.44196471107123E-15,0.,1.));
#762=DIRECTION('',(0.,1.,0.));
#763=DIRECTION('',(2.44196471107123E-15,0.,1.));
#764=DIRECTION('',(0.,1.,0.));
#765=DIRECTION('center_axis',(0.,0.,1.));
#766=DIRECTION('ref_axis',(1.,0.,0.));
#767=DIRECTION('',(1.,0.,0.));
#768=DIRECTION('',(1.,0.,0.));
#769=DIRECTION('',(0.,1.,0.));
#770=DIRECTION('center_axis',(1.,0.,0.));
#771=DIRECTION('ref_axis',(0.,0.,-1.));
#772=DIRECTION('',(0.,0.,-1.));
#773=DIRECTION('',(0.,0.,-1.));
#774=DIRECTION('',(0.,1.,0.));
#775=DIRECTION('center_axis',(0.,0.,-1.));
#776=DIRECTION('ref_axis',(-1.,0.,0.));
#777=DIRECTION('',(-1.,0.,0.));
#778=DIRECTION('',(-1.,0.,0.));
#779=DIRECTION('',(0.,1.,0.));
#780=DIRECTION('center_axis',(0.,1.,0.));
#781=DIRECTION('ref_axis',(-8.88178419700126E-16,0.,1.));
#782=DIRECTION('center_axis',(0.,-1.,0.));
#783=DIRECTION('ref_axis',(-8.88178419700126E-16,0.,1.));
#784=DIRECTION('center_axis',(0.,-1.,0.));
#785=DIRECTION('ref_axis',(-8.88178419700126E-16,0.,1.));
#786=DIRECTION('center_axis',(1.,0.,0.));
#787=DIRECTION('ref_axis',(0.,0.,-1.));
#788=DIRECTION('',(0.,0.,1.));
#789=DIRECTION('',(0.,1.,0.));
#790=DIRECTION('',(0.,0.,-1.));
#791=DIRECTION('',(0.,1.,0.));
#792=DIRECTION('',(0.,1.,0.));
#793=DIRECTION('center_axis',(1.,0.,0.));
#794=DIRECTION('ref_axis',(0.,0.,-1.));
#795=DIRECTION('',(0.,0.,-1.));
#796=DIRECTION('',(0.,0.,-1.));
#797=DIRECTION('',(0.,1.,0.));
#798=DIRECTION('center_axis',(0.,0.,1.));
#799=DIRECTION('ref_axis',(1.,0.,0.));
#800=DIRECTION('',(-1.,0.,0.));
#801=DIRECTION('',(1.,0.,0.));
#802=DIRECTION('',(0.,1.,0.));
#803=DIRECTION('center_axis',(-1.,0.,0.));
#804=DIRECTION('ref_axis',(0.,0.,1.));
#805=DIRECTION('',(0.,0.,1.));
#806=DIRECTION('',(0.,0.,1.));
#807=DIRECTION('',(0.,1.,0.));
#808=DIRECTION('center_axis',(0.,0.,-1.));
#809=DIRECTION('ref_axis',(-1.,0.,0.));
#810=DIRECTION('',(-1.,0.,0.));
#811=DIRECTION('',(-1.,0.,0.));
#812=DIRECTION('',(0.,1.,0.));
#813=DIRECTION('center_axis',(1.,0.,0.));
#814=DIRECTION('ref_axis',(0.,0.,-1.));
#815=DIRECTION('',(0.,0.,1.));
#816=DIRECTION('',(0.,0.,-1.));
#817=DIRECTION('',(0.,1.,0.));
#818=DIRECTION('center_axis',(0.,0.,1.));
#819=DIRECTION('ref_axis',(1.,0.,0.));
#820=DIRECTION('',(-1.,0.,0.));
#821=DIRECTION('',(1.,0.,0.));
#822=DIRECTION('',(0.,1.,0.));
#823=DIRECTION('',(0.,1.,0.));
#824=DIRECTION('center_axis',(0.,0.,1.));
#825=DIRECTION('ref_axis',(1.,0.,0.));
#826=DIRECTION('',(1.,0.,0.));
#827=DIRECTION('',(1.,0.,0.));
#828=DIRECTION('',(0.,1.,0.));
#829=DIRECTION('center_axis',(-1.,0.,0.));
#830=DIRECTION('ref_axis',(0.,0.,1.));
#831=DIRECTION('',(0.,0.,1.));
#832=DIRECTION('',(0.,0.,1.));
#833=DIRECTION('',(0.,1.,0.));
#834=DIRECTION('center_axis',(0.,0.,-1.));
#835=DIRECTION('ref_axis',(-1.,0.,0.));
#836=DIRECTION('',(-1.,0.,0.));
#837=DIRECTION('',(-1.,0.,0.));
#838=DIRECTION('',(0.,1.,0.));
#839=DIRECTION('center_axis',(1.,0.,0.));
#840=DIRECTION('ref_axis',(0.,0.,-1.));
#841=DIRECTION('',(0.,0.,-1.));
#842=DIRECTION('',(0.,0.,-1.));
#843=DIRECTION('',(0.,1.,0.));
#844=DIRECTION('center_axis',(0.,0.,1.));
#845=DIRECTION('ref_axis',(1.,0.,0.));
#846=DIRECTION('',(1.,0.,0.));
#847=DIRECTION('',(1.,0.,0.));
#848=DIRECTION('',(0.,1.,0.));
#849=DIRECTION('center_axis',(-1.,0.,0.));
#850=DIRECTION('ref_axis',(0.,0.,1.));
#851=DIRECTION('',(0.,0.,-1.));
#852=DIRECTION('',(0.,0.,1.));
#853=DIRECTION('',(0.,1.,0.));
#854=DIRECTION('',(0.,1.,0.));
#855=DIRECTION('center_axis',(-1.,0.,0.));
#856=DIRECTION('ref_axis',(0.,0.,1.));
#857=DIRECTION('',(0.,0.,1.));
#858=DIRECTION('',(0.,0.,1.));
#859=DIRECTION('',(0.,1.,0.));
#860=DIRECTION('center_axis',(0.,0.,-1.));
#861=DIRECTION('ref_axis',(-1.,0.,0.));
#862=DIRECTION('',(1.,0.,0.));
#863=DIRECTION('',(-1.,0.,0.));
#864=DIRECTION('',(0.,1.,0.));
#865=DIRECTION('center_axis',(1.,0.,0.));
#866=DIRECTION('ref_axis',(0.,0.,-1.));
#867=DIRECTION('',(0.,0.,-1.));
#868=DIRECTION('',(0.,0.,-1.));
#869=DIRECTION('',(0.,1.,0.));
#870=DIRECTION('center_axis',(0.,0.,1.));
#871=DIRECTION('ref_axis',(1.,0.,0.));
#872=DIRECTION('',(1.,0.,0.));
#873=DIRECTION('',(1.,0.,0.));
#874=DIRECTION('',(0.,1.,0.));
#875=DIRECTION('center_axis',(-1.,0.,0.));
#876=DIRECTION('ref_axis',(0.,0.,1.));
#877=DIRECTION('',(0.,0.,-1.));
#878=DIRECTION('',(0.,0.,1.));
#879=DIRECTION('',(0.,1.,0.));
#880=DIRECTION('center_axis',(0.,0.,-1.));
#881=DIRECTION('ref_axis',(-1.,0.,0.));
#882=DIRECTION('',(1.,0.,0.));
#883=DIRECTION('',(-1.,0.,0.));
#884=DIRECTION('',(0.,1.,0.));
#885=DIRECTION('',(0.,1.,0.));
#886=DIRECTION('center_axis',(0.,0.,-1.));
#887=DIRECTION('ref_axis',(-1.,0.,0.));
#888=DIRECTION('',(-1.,0.,0.));
#889=DIRECTION('',(-1.,0.,0.));
#890=DIRECTION('',(0.,1.,0.));
#891=DIRECTION('center_axis',(1.,0.,0.));
#892=DIRECTION('ref_axis',(0.,0.,-1.));
#893=DIRECTION('',(0.,0.,-1.));
#894=DIRECTION('',(0.,0.,-1.));
#895=DIRECTION('',(0.,1.,0.));
#896=DIRECTION('center_axis',(0.,0.,1.));
#897=DIRECTION('ref_axis',(1.,0.,0.));
#898=DIRECTION('',(1.,0.,0.));
#899=DIRECTION('',(1.,0.,0.));
#900=DIRECTION('',(0.,1.,0.));
#901=DIRECTION('center_axis',(-1.,0.,0.));
#902=DIRECTION('ref_axis',(0.,0.,1.));
#903=DIRECTION('',(0.,0.,1.));
#904=DIRECTION('',(0.,0.,1.));
#905=DIRECTION('',(0.,1.,0.));
#906=DIRECTION('center_axis',(0.,0.,-1.));
#907=DIRECTION('ref_axis',(-1.,0.,0.));
#908=DIRECTION('',(-1.,0.,0.));
#909=DIRECTION('',(-1.,0.,0.));
#910=DIRECTION('center_axis',(0.,1.,0.));
#911=DIRECTION('ref_axis',(1.,0.,0.));
#912=DIRECTION('center_axis',(0.,1.,0.));
#913=DIRECTION('ref_axis',(1.,0.,0.));
#914=CARTESIAN_POINT('',(0.,0.,0.));
#915=CARTESIAN_POINT('Origin',(-34.0907132936101,0.,34.0907132936101));
#916=CARTESIAN_POINT('',(-34.0907132936101,0.,34.0907132936101));
#917=CARTESIAN_POINT('',(-34.0907132936101,0.,35.9092867063899));
#918=CARTESIAN_POINT('',(-34.0907132936101,0.,35.9092867063899));
#919=CARTESIAN_POINT('',(-34.0907132936101,360.,35.9092867063899));
#920=CARTESIAN_POINT('',(-34.0907132936101,0.,35.9092867063899));
#921=CARTESIAN_POINT('',(-34.0907132936101,360.,34.0907132936101));
#922=CARTESIAN_POINT('',(-34.0907132936101,360.,35.9092867063899));
#923=CARTESIAN_POINT('',(-34.0907132936101,0.,34.0907132936101));
#924=CARTESIAN_POINT('Origin',(-45.9092867063899,0.,34.0907132936101));
#925=CARTESIAN_POINT('',(-45.9092867063899,0.,34.0907132936101));
#926=CARTESIAN_POINT('',(-34.0907132936101,0.,34.0907132936101));
#927=CARTESIAN_POINT('',(-45.9092867063899,360.,34.0907132936101));
#928=CARTESIAN_POINT('',(-34.0907132936101,360.,34.0907132936101));
#929=CARTESIAN_POINT('',(-45.9092867063899,0.,34.0907132936101));
#930=CARTESIAN_POINT('Origin',(-45.9092867063899,0.,45.9092867063899));
#931=CARTESIAN_POINT('',(-45.9092867063899,0.,45.9092867063899));
#932=CARTESIAN_POINT('',(-45.9092867063899,0.,34.0907132936101));
#933=CARTESIAN_POINT('',(-45.9092867063899,360.,45.9092867063899));
#934=CARTESIAN_POINT('',(-45.9092867063899,360.,34.0907132936101));
#935=CARTESIAN_POINT('',(-45.9092867063899,0.,45.9092867063899));
#936=CARTESIAN_POINT('Origin',(-44.0907132936101,0.,45.9092867063899));
#937=CARTESIAN_POINT('',(-44.0907132936101,0.,45.9092867063899));
#938=CARTESIAN_POINT('',(-45.9092867063899,0.,45.9092867063899));
#939=CARTESIAN_POINT('',(-44.0907132936101,360.,45.9092867063899));
#940=CARTESIAN_POINT('',(-45.9092867063899,360.,45.9092867063899));
#941=CARTESIAN_POINT('',(-44.0907132936101,0.,45.9092867063899));
#942=CARTESIAN_POINT('Origin',(-44.0907132936101,0.,35.9092867063899));
#943=CARTESIAN_POINT('Origin',(-44.0907132936101,0.,35.9092867063899));
#944=CARTESIAN_POINT('Origin',(-44.0907132936101,360.,35.9092867063899));
#945=CARTESIAN_POINT('Origin',(-41.0905582221492,0.,21.5453308015616));
#946=CARTESIAN_POINT('',(-41.0905582221492,0.,11.5453308015616));
#947=CARTESIAN_POINT('',(-41.0905582221492,0.,21.5453308015616));
#948=CARTESIAN_POINT('',(-41.0905582221492,0.,11.5453308015616));
#949=CARTESIAN_POINT('',(-41.0905582221492,360.,11.5453308015616));
#950=CARTESIAN_POINT('',(-41.0905582221492,0.,11.5453308015616));
#951=CARTESIAN_POINT('',(-41.0905582221492,360.,21.5453308015616));
#952=CARTESIAN_POINT('',(-41.0905582221492,360.,11.5453308015616));
#953=CARTESIAN_POINT('',(-41.0905582221492,0.,21.5453308015616));
#954=CARTESIAN_POINT('Ctrl Pts',(-40.1817022698171,0.,-18.4546691984383));
#955=CARTESIAN_POINT('Ctrl Pts',(-40.1817022698171,360.,-18.4546691984383));
#956=CARTESIAN_POINT('Ctrl Pts',(-39.5544404811727,0.,-18.6019126882431));
#957=CARTESIAN_POINT('Ctrl Pts',(-39.5544404811727,360.,-18.6019126882431));
#958=CARTESIAN_POINT('Ctrl Pts',(-38.3455430575743,0.,-18.8771180055208));
#959=CARTESIAN_POINT('Ctrl Pts',(-38.3455430575743,360.,-18.8771180055208));
#960=CARTESIAN_POINT('Ctrl Pts',(-36.6690722967709,0.,-19.2320779570948));
#961=CARTESIAN_POINT('Ctrl Pts',(-36.6690722967709,360.,-19.2320779570948));
#962=CARTESIAN_POINT('Ctrl Pts',(-34.6746007729986,0.,-19.5493537319466));
#963=CARTESIAN_POINT('Ctrl Pts',(-34.6746007729986,360.,-19.5493537319466));
#964=CARTESIAN_POINT('Ctrl Pts',(-32.4147468493183,0.,-19.472684493649));
#965=CARTESIAN_POINT('Ctrl Pts',(-32.4147468493183,360.,-19.472684493649));
#966=CARTESIAN_POINT('Ctrl Pts',(-30.2118852379452,0.,-18.6851354286508));
#967=CARTESIAN_POINT('Ctrl Pts',(-30.2118852379452,360.,-18.6851354286508));
#968=CARTESIAN_POINT('Ctrl Pts',(-27.9586767006436,0.,-17.0125226537953));
#969=CARTESIAN_POINT('Ctrl Pts',(-27.9586767006436,360.,-17.0125226537953));
#970=CARTESIAN_POINT('Ctrl Pts',(-25.6955105440023,0.,-14.4342284028782));
#971=CARTESIAN_POINT('Ctrl Pts',(-25.6955105440023,360.,-14.4342284028782));
#972=CARTESIAN_POINT('Ctrl Pts',(-23.5646041444692,0.,-11.047263908371));
#973=CARTESIAN_POINT('Ctrl Pts',(-23.5646041444692,360.,-11.047263908371));
#974=CARTESIAN_POINT('Ctrl Pts',(-21.7645875500651,0.,-7.03158539557323));
#975=CARTESIAN_POINT('Ctrl Pts',(-21.7645875500651,360.,-7.03158539557323));
#976=CARTESIAN_POINT('Ctrl Pts',(-20.5055685981879,0.,-2.61720263280651));
#977=CARTESIAN_POINT('Ctrl Pts',(-20.5055685981879,360.,-2.61720263280651));
#978=CARTESIAN_POINT('Ctrl Pts',(-19.9649720373003,0.,1.9473046641579));
#979=CARTESIAN_POINT('Ctrl Pts',(-19.9649720373003,360.,1.9473046641579));
#980=CARTESIAN_POINT('Ctrl Pts',(-20.2401554704876,0.,6.4267629557996));
#981=CARTESIAN_POINT('Ctrl Pts',(-20.2401554704876,360.,6.4267629557996));
#982=CARTESIAN_POINT('Ctrl Pts',(-21.3063334897468,0.,10.6284178521073));
#983=CARTESIAN_POINT('Ctrl Pts',(-21.3063334897468,360.,10.6284178521073));
#984=CARTESIAN_POINT('Ctrl Pts',(-23.0542087454625,0.,14.3957490005291));
#985=CARTESIAN_POINT('Ctrl Pts',(-23.0542087454625,360.,14.3957490005291));
#986=CARTESIAN_POINT('Ctrl Pts',(-25.3200753087188,0.,17.6053670296329));
#987=CARTESIAN_POINT('Ctrl Pts',(-25.3200753087188,360.,17.6053670296329));
#988=CARTESIAN_POINT('Ctrl Pts',(-27.9174299942331,0.,20.1638269297796));
#989=CARTESIAN_POINT('Ctrl Pts',(-27.9174299942331,360.,20.1638269297796));
#990=CARTESIAN_POINT('Ctrl Pts',(-30.6657049428741,0.,22.0053659015496));
#991=CARTESIAN_POINT('Ctrl Pts',(-30.6657049428741,360.,22.0053659015496));
#992=CARTESIAN_POINT('Ctrl Pts',(-33.4222656013857,0.,23.0909644885644));
#993=CARTESIAN_POINT('Ctrl Pts',(-33.4222656013857,360.,23.0909644885644));
#994=CARTESIAN_POINT('Ctrl Pts',(-36.1057286933257,0.,23.4064817521901));
#995=CARTESIAN_POINT('Ctrl Pts',(-36.1057286933257,360.,23.4064817521901));
#996=CARTESIAN_POINT('Ctrl Pts',(-38.1620800958658,0.,23.0431405765575));
#997=CARTESIAN_POINT('Ctrl Pts',(-38.1620800958658,360.,23.0431405765575));
#998=CARTESIAN_POINT('Ctrl Pts',(-39.6481105298703,0.,22.4272377782538));
#999=CARTESIAN_POINT('Ctrl Pts',(-39.6481105298703,360.,22.4272377782538));
#1000=CARTESIAN_POINT('Ctrl Pts',(-40.6138925945473,0.,21.8646334642449));
#1001=CARTESIAN_POINT('Ctrl Pts',(-40.6138925945473,360.,21.8646334642449));
#1002=CARTESIAN_POINT('Ctrl Pts',(-41.0905582221492,0.,21.5453308015616));
#1003=CARTESIAN_POINT('Ctrl Pts',(-41.0905582221492,360.,21.5453308015616));
#1004=CARTESIAN_POINT('',(-40.1817022698171,0.,-18.4546691984383));
#1005=CARTESIAN_POINT('Ctrl Pts',(-40.1817022698171,0.,-18.4546691984383));
#1006=CARTESIAN_POINT('Ctrl Pts',(-39.5544404811727,0.,-18.6019126882431));
#1007=CARTESIAN_POINT('Ctrl Pts',(-38.3455430575743,0.,-18.8771180055208));
#1008=CARTESIAN_POINT('Ctrl Pts',(-36.6690722967709,0.,-19.2320779570948));
#1009=CARTESIAN_POINT('Ctrl Pts',(-34.6746007729986,0.,-19.5493537319466));
#1010=CARTESIAN_POINT('Ctrl Pts',(-32.4147468493183,0.,-19.472684493649));
#1011=CARTESIAN_POINT('Ctrl Pts',(-30.2118852379452,0.,-18.6851354286508));
#1012=CARTESIAN_POINT('Ctrl Pts',(-27.9586767006436,0.,-17.0125226537953));
#1013=CARTESIAN_POINT('Ctrl Pts',(-25.6955105440023,0.,-14.4342284028782));
#1014=CARTESIAN_POINT('Ctrl Pts',(-23.5646041444692,0.,-11.047263908371));
#1015=CARTESIAN_POINT('Ctrl Pts',(-21.7645875500651,0.,-7.03158539557323));
#1016=CARTESIAN_POINT('Ctrl Pts',(-20.5055685981879,0.,-2.61720263280651));
#1017=CARTESIAN_POINT('Ctrl Pts',(-19.9649720373003,0.,1.9473046641579));
#1018=CARTESIAN_POINT('Ctrl Pts',(-20.2401554704876,0.,6.4267629557996));
#1019=CARTESIAN_POINT('Ctrl Pts',(-21.3063334897468,0.,10.6284178521073));
#1020=CARTESIAN_POINT('Ctrl Pts',(-23.0542087454625,0.,14.3957490005291));
#1021=CARTESIAN_POINT('Ctrl Pts',(-25.3200753087188,0.,17.6053670296329));
#1022=CARTESIAN_POINT('Ctrl Pts',(-27.9174299942331,0.,20.1638269297796));
#1023=CARTESIAN_POINT('Ctrl Pts',(-30.6657049428741,0.,22.0053659015496));
#1024=CARTESIAN_POINT('Ctrl Pts',(-33.4222656013857,0.,23.0909644885644));
#1025=CARTESIAN_POINT('Ctrl Pts',(-36.1057286933257,0.,23.4064817521901));
#1026=CARTESIAN_POINT('Ctrl Pts',(-38.1620800958658,0.,23.0431405765575));
#1027=CARTESIAN_POINT('Ctrl Pts',(-39.6481105298703,0.,22.4272377782538));
#1028=CARTESIAN_POINT('Ctrl Pts',(-40.6138925945473,0.,21.8646334642449));
#1029=CARTESIAN_POINT('Ctrl Pts',(-41.0905582221492,0.,21.5453308015616));
#1030=CARTESIAN_POINT('',(-40.1817022698171,360.,-18.4546691984383));
#1031=CARTESIAN_POINT('Ctrl Pts',(-40.1817022698171,360.,-18.4546691984383));
#1032=CARTESIAN_POINT('Ctrl Pts',(-39.5544404811727,360.,-18.6019126882431));
#1033=CARTESIAN_POINT('Ctrl Pts',(-38.3455430575743,360.,-18.8771180055208));
#1034=CARTESIAN_POINT('Ctrl Pts',(-36.6690722967709,360.,-19.2320779570948));
#1035=CARTESIAN_POINT('Ctrl Pts',(-34.6746007729986,360.,-19.5493537319466));
#1036=CARTESIAN_POINT('Ctrl Pts',(-32.4147468493183,360.,-19.472684493649));
#1037=CARTESIAN_POINT('Ctrl Pts',(-30.2118852379452,360.,-18.6851354286508));
#1038=CARTESIAN_POINT('Ctrl Pts',(-27.9586767006436,360.,-17.0125226537953));
#1039=CARTESIAN_POINT('Ctrl Pts',(-25.6955105440023,360.,-14.4342284028782));
#1040=CARTESIAN_POINT('Ctrl Pts',(-23.5646041444692,360.,-11.047263908371));
#1041=CARTESIAN_POINT('Ctrl Pts',(-21.7645875500651,360.,-7.03158539557323));
#1042=CARTESIAN_POINT('Ctrl Pts',(-20.5055685981879,360.,-2.61720263280651));
#1043=CARTESIAN_POINT('Ctrl Pts',(-19.9649720373003,360.,1.9473046641579));
#1044=CARTESIAN_POINT('Ctrl Pts',(-20.2401554704876,360.,6.4267629557996));
#1045=CARTESIAN_POINT('Ctrl Pts',(-21.3063334897468,360.,10.6284178521073));
#1046=CARTESIAN_POINT('Ctrl Pts',(-23.0542087454625,360.,14.3957490005291));
#1047=CARTESIAN_POINT('Ctrl Pts',(-25.3200753087188,360.,17.6053670296329));
#1048=CARTESIAN_POINT('Ctrl Pts',(-27.9174299942331,360.,20.1638269297796));
#1049=CARTESIAN_POINT('Ctrl Pts',(-30.6657049428741,360.,22.0053659015496));
#1050=CARTESIAN_POINT('Ctrl Pts',(-33.4222656013857,360.,23.0909644885644));
#1051=CARTESIAN_POINT('Ctrl Pts',(-36.1057286933257,360.,23.4064817521901));
#1052=CARTESIAN_POINT('Ctrl Pts',(-38.1620800958658,360.,23.0431405765575));
#1053=CARTESIAN_POINT('Ctrl Pts',(-39.6481105298703,360.,22.4272377782538));
#1054=CARTESIAN_POINT('Ctrl Pts',(-40.6138925945473,360.,21.8646334642449));
#1055=CARTESIAN_POINT('Ctrl Pts',(-41.0905582221492,360.,21.5453308015616));
#1056=CARTESIAN_POINT('',(-40.1817022698171,0.,-18.4546691984383));
#1057=CARTESIAN_POINT('Origin',(-40.1817022698171,0.,-8.45466919843834));
#1058=CARTESIAN_POINT('',(-40.1817022698171,0.,-8.45466919843834));
#1059=CARTESIAN_POINT('',(-40.1817022698171,0.,-8.45466919843834));
#1060=CARTESIAN_POINT('',(-40.1817022698171,360.,-8.45466919843834));
#1061=CARTESIAN_POINT('',(-40.1817022698171,360.,-8.45466919843834));
#1062=CARTESIAN_POINT('',(-40.1817022698171,0.,-8.45466919843834));
#1063=CARTESIAN_POINT('Origin',(-50.,0.,-8.45466919843834));
#1064=CARTESIAN_POINT('',(-50.,0.,-8.45466919843834));
#1065=CARTESIAN_POINT('',(-40.1817022698171,0.,-8.45466919843834));
#1066=CARTESIAN_POINT('',(-50.,360.,-8.45466919843834));
#1067=CARTESIAN_POINT('',(-40.1817022698171,360.,-8.45466919843834));
#1068=CARTESIAN_POINT('',(-50.,0.,-8.45466919843834));
#1069=CARTESIAN_POINT('Origin',(-50.,0.,-50.));
#1070=CARTESIAN_POINT('',(-50.,0.,-50.));
#1071=CARTESIAN_POINT('',(-50.,0.,-50.));
#1072=CARTESIAN_POINT('',(-50.,360.,-50.));
#1073=CARTESIAN_POINT('',(-50.,360.,-50.));
#1074=CARTESIAN_POINT('',(-50.,0.,-50.));
#1075=CARTESIAN_POINT('Origin',(-10.,0.,-50.));
#1076=CARTESIAN_POINT('',(-10.,0.,-50.));
#1077=CARTESIAN_POINT('',(-10.,0.,-50.));
#1078=CARTESIAN_POINT('',(-10.,360.,-50.));
#1079=CARTESIAN_POINT('',(-10.,360.,-50.));
#1080=CARTESIAN_POINT('',(-10.,0.,-50.));
#1081=CARTESIAN_POINT('Origin',(-10.,0.,-40.));
#1082=CARTESIAN_POINT('',(-10.,0.,-40.));
#1083=CARTESIAN_POINT('',(-10.,0.,-50.));
#1084=CARTESIAN_POINT('',(-10.,360.,-40.));
#1085=CARTESIAN_POINT('',(-10.,360.,-50.));
#1086=CARTESIAN_POINT('',(-10.,0.,-40.));
#1087=CARTESIAN_POINT('Origin',(-20.,0.,-40.));
#1088=CARTESIAN_POINT('',(-20.,0.,-40.));
#1089=CARTESIAN_POINT('',(-10.,0.,-40.));
#1090=CARTESIAN_POINT('',(-20.,360.,-40.));
#1091=CARTESIAN_POINT('',(-10.,360.,-40.));
#1092=CARTESIAN_POINT('',(-20.,0.,-40.));
#1093=CARTESIAN_POINT('Ctrl Pts',(20.,0.,-40.9088559523321));
#1094=CARTESIAN_POINT('Ctrl Pts',(20.,360.,-40.9088559523321));
#1095=CARTESIAN_POINT('Ctrl Pts',(20.3193026626833,0.,-40.4321903247302));
#1096=CARTESIAN_POINT('Ctrl Pts',(20.3193026626833,360.,-40.4321903247302));
#1097=CARTESIAN_POINT('Ctrl Pts',(20.8819069766922,0.,-39.4664082600533));
#1098=CARTESIAN_POINT('Ctrl Pts',(20.8819069766922,360.,-39.4664082600533));
#1099=CARTESIAN_POINT('Ctrl Pts',(21.4978097749958,0.,-37.9803778260489));
#1100=CARTESIAN_POINT('Ctrl Pts',(21.4978097749958,360.,-37.9803778260489));
#1101=CARTESIAN_POINT('Ctrl Pts',(21.8611509506283,0.,-35.924026423509));
#1102=CARTESIAN_POINT('Ctrl Pts',(21.8611509506283,360.,-35.924026423509));
#1103=CARTESIAN_POINT('Ctrl Pts',(21.5456336870026,0.,-33.240563331569));
#1104=CARTESIAN_POINT('Ctrl Pts',(21.5456336870026,360.,-33.240563331569));
#1105=CARTESIAN_POINT('Ctrl Pts',(20.460035099988,0.,-30.4840026730571));
#1106=CARTESIAN_POINT('Ctrl Pts',(20.460035099988,360.,-30.4840026730571));
#1107=CARTESIAN_POINT('Ctrl Pts',(18.6184961282182,0.,-27.7357277244157));
#1108=CARTESIAN_POINT('Ctrl Pts',(18.6184961282182,360.,-27.7357277244157));
#1109=CARTESIAN_POINT('Ctrl Pts',(16.0600362280715,0.,-25.1383730389008));
#1110=CARTESIAN_POINT('Ctrl Pts',(16.0600362280715,360.,-25.1383730389008));
#1111=CARTESIAN_POINT('Ctrl Pts',(12.8504181989678,0.,-22.8725064756441));
#1112=CARTESIAN_POINT('Ctrl Pts',(12.8504181989678,360.,-22.8725064756441));
#1113=CARTESIAN_POINT('Ctrl Pts',(9.08308705054599,0.,-21.1246312199283));
#1114=CARTESIAN_POINT('Ctrl Pts',(9.08308705054599,360.,-21.1246312199283));
#1115=CARTESIAN_POINT('Ctrl Pts',(4.8814321542382,0.,-20.0584532006694));
#1116=CARTESIAN_POINT('Ctrl Pts',(4.8814321542382,360.,-20.0584532006694));
#1117=CARTESIAN_POINT('Ctrl Pts',(0.401973862596284,0.,-19.7832697674831));
#1118=CARTESIAN_POINT('Ctrl Pts',(0.401973862596284,360.,-19.7832697674831));
#1119=CARTESIAN_POINT('Ctrl Pts',(-4.16253343436836,0.,-20.3238663283717));
#1120=CARTESIAN_POINT('Ctrl Pts',(-4.16253343436836,360.,-20.3238663283717));
#1121=CARTESIAN_POINT('Ctrl Pts',(-8.57691619713533,0.,-21.58288528025));
#1122=CARTESIAN_POINT('Ctrl Pts',(-8.57691619713533,360.,-21.58288528025));
#1123=CARTESIAN_POINT('Ctrl Pts',(-12.5925947099333,0.,-23.3829018746548));
#1124=CARTESIAN_POINT('Ctrl Pts',(-12.5925947099333,360.,-23.3829018746548));
#1125=CARTESIAN_POINT('Ctrl Pts',(-15.9795592044407,0.,-25.5138082741879));
#1126=CARTESIAN_POINT('Ctrl Pts',(-15.9795592044407,360.,-25.5138082741879));
#1127=CARTESIAN_POINT('Ctrl Pts',(-18.5578534553577,0.,-27.7769744308282));
#1128=CARTESIAN_POINT('Ctrl Pts',(-18.5578534553577,360.,-27.7769744308282));
#1129=CARTESIAN_POINT('Ctrl Pts',(-20.2304662302125,0.,-30.0301829681281));
#1130=CARTESIAN_POINT('Ctrl Pts',(-20.2304662302125,360.,-30.0301829681281));
#1131=CARTESIAN_POINT('Ctrl Pts',(-21.0180152952099,0.,-32.2330445794995));
#1132=CARTESIAN_POINT('Ctrl Pts',(-21.0180152952099,360.,-32.2330445794995));
#1133=CARTESIAN_POINT('Ctrl Pts',(-21.0946845335071,0.,-34.4928985031793));
#1134=CARTESIAN_POINT('Ctrl Pts',(-21.0946845335071,360.,-34.4928985031793));
#1135=CARTESIAN_POINT('Ctrl Pts',(-20.7774087586557,0.,-36.4873700269524));
#1136=CARTESIAN_POINT('Ctrl Pts',(-20.7774087586557,360.,-36.4873700269524));
#1137=CARTESIAN_POINT('Ctrl Pts',(-20.4224488070823,0.,-38.1638407877569));
#1138=CARTESIAN_POINT('Ctrl Pts',(-20.4224488070823,360.,-38.1638407877569));
#1139=CARTESIAN_POINT('Ctrl Pts',(-20.1472434898048,0.,-39.3727382113556));
#1140=CARTESIAN_POINT('Ctrl Pts',(-20.1472434898048,360.,-39.3727382113556));
#1141=CARTESIAN_POINT('Ctrl Pts',(-20.,0.,-40.));
#1142=CARTESIAN_POINT('Ctrl Pts',(-20.,360.,-40.));
#1143=CARTESIAN_POINT('',(20.,0.,-40.9088559523321));
#1144=CARTESIAN_POINT('Ctrl Pts',(-20.,0.,-40.));
#1145=CARTESIAN_POINT('Ctrl Pts',(-20.1472434898048,0.,-39.3727382113556));
#1146=CARTESIAN_POINT('Ctrl Pts',(-20.4224488070823,0.,-38.1638407877569));
#1147=CARTESIAN_POINT('Ctrl Pts',(-20.7774087586557,0.,-36.4873700269524));
#1148=CARTESIAN_POINT('Ctrl Pts',(-21.0946845335071,0.,-34.4928985031793));
#1149=CARTESIAN_POINT('Ctrl Pts',(-21.0180152952099,0.,-32.2330445794995));
#1150=CARTESIAN_POINT('Ctrl Pts',(-20.2304662302125,0.,-30.0301829681281));
#1151=CARTESIAN_POINT('Ctrl Pts',(-18.5578534553577,0.,-27.7769744308282));
#1152=CARTESIAN_POINT('Ctrl Pts',(-15.9795592044407,0.,-25.5138082741879));
#1153=CARTESIAN_POINT('Ctrl Pts',(-12.5925947099333,0.,-23.3829018746548));
#1154=CARTESIAN_POINT('Ctrl Pts',(-8.57691619713533,0.,-21.58288528025));
#1155=CARTESIAN_POINT('Ctrl Pts',(-4.16253343436836,0.,-20.3238663283717));
#1156=CARTESIAN_POINT('Ctrl Pts',(0.401973862596284,0.,-19.7832697674831));
#1157=CARTESIAN_POINT('Ctrl Pts',(4.8814321542382,0.,-20.0584532006694));
#1158=CARTESIAN_POINT('Ctrl Pts',(9.08308705054599,0.,-21.1246312199283));
#1159=CARTESIAN_POINT('Ctrl Pts',(12.8504181989678,0.,-22.8725064756441));
#1160=CARTESIAN_POINT('Ctrl Pts',(16.0600362280715,0.,-25.1383730389008));
#1161=CARTESIAN_POINT('Ctrl Pts',(18.6184961282182,0.,-27.7357277244157));
#1162=CARTESIAN_POINT('Ctrl Pts',(20.460035099988,0.,-30.4840026730571));
#1163=CARTESIAN_POINT('Ctrl Pts',(21.5456336870026,0.,-33.240563331569));
#1164=CARTESIAN_POINT('Ctrl Pts',(21.8611509506283,0.,-35.924026423509));
#1165=CARTESIAN_POINT('Ctrl Pts',(21.4978097749958,0.,-37.9803778260489));
#1166=CARTESIAN_POINT('Ctrl Pts',(20.8819069766922,0.,-39.4664082600533));
#1167=CARTESIAN_POINT('Ctrl Pts',(20.3193026626833,0.,-40.4321903247302));
#1168=CARTESIAN_POINT('Ctrl Pts',(20.,0.,-40.9088559523321));
#1169=CARTESIAN_POINT('',(20.,360.,-40.9088559523321));
#1170=CARTESIAN_POINT('Ctrl Pts',(20.,360.,-40.9088559523321));
#1171=CARTESIAN_POINT('Ctrl Pts',(20.3193026626833,360.,-40.4321903247302));
#1172=CARTESIAN_POINT('Ctrl Pts',(20.8819069766922,360.,-39.4664082600533));
#1173=CARTESIAN_POINT('Ctrl Pts',(21.4978097749958,360.,-37.9803778260489));
#1174=CARTESIAN_POINT('Ctrl Pts',(21.8611509506283,360.,-35.924026423509));
#1175=CARTESIAN_POINT('Ctrl Pts',(21.5456336870026,360.,-33.240563331569));
#1176=CARTESIAN_POINT('Ctrl Pts',(20.460035099988,360.,-30.4840026730571));
#1177=CARTESIAN_POINT('Ctrl Pts',(18.6184961282182,360.,-27.7357277244157));
#1178=CARTESIAN_POINT('Ctrl Pts',(16.0600362280715,360.,-25.1383730389008));
#1179=CARTESIAN_POINT('Ctrl Pts',(12.8504181989678,360.,-22.8725064756441));
#1180=CARTESIAN_POINT('Ctrl Pts',(9.08308705054599,360.,-21.1246312199283));
#1181=CARTESIAN_POINT('Ctrl Pts',(4.8814321542382,360.,-20.0584532006694));
#1182=CARTESIAN_POINT('Ctrl Pts',(0.401973862596284,360.,-19.7832697674831));
#1183=CARTESIAN_POINT('Ctrl Pts',(-4.16253343436836,360.,-20.3238663283717));
#1184=CARTESIAN_POINT('Ctrl Pts',(-8.57691619713533,360.,-21.58288528025));
#1185=CARTESIAN_POINT('Ctrl Pts',(-12.5925947099333,360.,-23.3829018746548));
#1186=CARTESIAN_POINT('Ctrl Pts',(-15.9795592044407,360.,-25.5138082741879));
#1187=CARTESIAN_POINT('Ctrl Pts',(-18.5578534553577,360.,-27.7769744308282));
#1188=CARTESIAN_POINT('Ctrl Pts',(-20.2304662302125,360.,-30.0301829681281));
#1189=CARTESIAN_POINT('Ctrl Pts',(-21.0180152952099,360.,-32.2330445794995));
#1190=CARTESIAN_POINT('Ctrl Pts',(-21.0946845335071,360.,-34.4928985031793));
#1191=CARTESIAN_POINT('Ctrl Pts',(-20.7774087586557,360.,-36.4873700269524));
#1192=CARTESIAN_POINT('Ctrl Pts',(-20.4224488070823,360.,-38.1638407877569));
#1193=CARTESIAN_POINT('Ctrl Pts',(-20.1472434898048,360.,-39.3727382113556));
#1194=CARTESIAN_POINT('Ctrl Pts',(-20.,360.,-40.));
#1195=CARTESIAN_POINT('',(20.,0.,-40.9088559523321));
#1196=CARTESIAN_POINT('Origin',(10.,0.,-40.9088559523321));
#1197=CARTESIAN_POINT('',(10.,0.,-40.9088559523321));
#1198=CARTESIAN_POINT('',(10.,0.,-40.9088559523321));
#1199=CARTESIAN_POINT('',(10.,360.,-40.9088559523321));
#1200=CARTESIAN_POINT('',(10.,360.,-40.9088559523321));
#1201=CARTESIAN_POINT('',(10.,0.,-40.9088559523321));
#1202=CARTESIAN_POINT('Origin',(10.,0.,-50.));
#1203=CARTESIAN_POINT('',(10.,0.,-50.));
#1204=CARTESIAN_POINT('',(10.,0.,-50.));
#1205=CARTESIAN_POINT('',(10.,360.,-50.));
#1206=CARTESIAN_POINT('',(10.,360.,-50.));
#1207=CARTESIAN_POINT('',(10.,0.,-50.));
#1208=CARTESIAN_POINT('Origin',(50.,0.,-50.));
#1209=CARTESIAN_POINT('',(50.,0.,-50.));
#1210=CARTESIAN_POINT('',(50.,0.,-50.));
#1211=CARTESIAN_POINT('',(50.,360.,-50.));
#1212=CARTESIAN_POINT('',(50.,360.,-50.));
#1213=CARTESIAN_POINT('',(50.,0.,-50.));
#1214=CARTESIAN_POINT('Origin',(50.,0.,-8.45466919843833));
#1215=CARTESIAN_POINT('',(50.,0.,-8.45466919843833));
#1216=CARTESIAN_POINT('',(50.,0.,-8.45466919843833));
#1217=CARTESIAN_POINT('',(50.,360.,-8.45466919843833));
#1218=CARTESIAN_POINT('',(50.,360.,-8.45466919843833));
#1219=CARTESIAN_POINT('',(50.,0.,-8.45466919843833));
#1220=CARTESIAN_POINT('Origin',(40.1817022698171,0.,-8.45466919843833));
#1221=CARTESIAN_POINT('',(40.1817022698171,0.,-8.45466919843833));
#1222=CARTESIAN_POINT('',(40.1817022698171,0.,-8.45466919843833));
#1223=CARTESIAN_POINT('',(40.1817022698171,360.,-8.45466919843833));
#1224=CARTESIAN_POINT('',(40.1817022698171,360.,-8.45466919843833));
#1225=CARTESIAN_POINT('',(40.1817022698171,0.,-8.45466919843833));
#1226=CARTESIAN_POINT('Origin',(40.1817022698171,0.,-18.4546691984383));
#1227=CARTESIAN_POINT('',(40.1817022698171,0.,-18.4546691984383));
#1228=CARTESIAN_POINT('',(40.1817022698171,0.,-8.45466919843833));
#1229=CARTESIAN_POINT('',(40.1817022698171,360.,-18.4546691984383));
#1230=CARTESIAN_POINT('',(40.1817022698171,360.,-8.45466919843833));
#1231=CARTESIAN_POINT('',(40.1817022698171,0.,-18.4546691984383));
#1232=CARTESIAN_POINT('Ctrl Pts',(41.0905582221492,0.,21.5453308015616));
#1233=CARTESIAN_POINT('Ctrl Pts',(41.0905582221492,360.,21.5453308015616));
#1234=CARTESIAN_POINT('Ctrl Pts',(40.6138925945473,0.,21.8646334642449));
#1235=CARTESIAN_POINT('Ctrl Pts',(40.6138925945473,360.,21.8646334642449));
#1236=CARTESIAN_POINT('Ctrl Pts',(39.6481105298703,0.,22.4272377782538));
#1237=CARTESIAN_POINT('Ctrl Pts',(39.6481105298703,360.,22.4272377782538));
#1238=CARTESIAN_POINT('Ctrl Pts',(38.1620800958658,0.,23.0431405765575));
#1239=CARTESIAN_POINT('Ctrl Pts',(38.1620800958658,360.,23.0431405765575));
#1240=CARTESIAN_POINT('Ctrl Pts',(36.1057286933257,0.,23.4064817521901));
#1241=CARTESIAN_POINT('Ctrl Pts',(36.1057286933257,360.,23.4064817521901));
#1242=CARTESIAN_POINT('Ctrl Pts',(33.4222656013857,0.,23.0909644885644));
#1243=CARTESIAN_POINT('Ctrl Pts',(33.4222656013857,360.,23.0909644885644));
#1244=CARTESIAN_POINT('Ctrl Pts',(30.6657049428741,0.,22.0053659015496));
#1245=CARTESIAN_POINT('Ctrl Pts',(30.6657049428741,360.,22.0053659015496));
#1246=CARTESIAN_POINT('Ctrl Pts',(27.9174299942331,0.,20.1638269297796));
#1247=CARTESIAN_POINT('Ctrl Pts',(27.9174299942331,360.,20.1638269297796));
#1248=CARTESIAN_POINT('Ctrl Pts',(25.3200753087188,0.,17.6053670296329));
#1249=CARTESIAN_POINT('Ctrl Pts',(25.3200753087188,360.,17.6053670296329));
#1250=CARTESIAN_POINT('Ctrl Pts',(23.0542087454625,0.,14.3957490005291));
#1251=CARTESIAN_POINT('Ctrl Pts',(23.0542087454625,360.,14.3957490005291));
#1252=CARTESIAN_POINT('Ctrl Pts',(21.3063334897468,0.,10.6284178521073));
#1253=CARTESIAN_POINT('Ctrl Pts',(21.3063334897468,360.,10.6284178521073));
#1254=CARTESIAN_POINT('Ctrl Pts',(20.2401554704876,0.,6.4267629557996));
#1255=CARTESIAN_POINT('Ctrl Pts',(20.2401554704876,360.,6.4267629557996));
#1256=CARTESIAN_POINT('Ctrl Pts',(19.9649720373003,0.,1.9473046641579));
#1257=CARTESIAN_POINT('Ctrl Pts',(19.9649720373003,360.,1.9473046641579));
#1258=CARTESIAN_POINT('Ctrl Pts',(20.5055685981879,0.,-2.61720263280651));
#1259=CARTESIAN_POINT('Ctrl Pts',(20.5055685981879,360.,-2.61720263280651));
#1260=CARTESIAN_POINT('Ctrl Pts',(21.7645875500651,0.,-7.03158539557323));
#1261=CARTESIAN_POINT('Ctrl Pts',(21.7645875500651,360.,-7.03158539557323));
#1262=CARTESIAN_POINT('Ctrl Pts',(23.5646041444692,0.,-11.047263908371));
#1263=CARTESIAN_POINT('Ctrl Pts',(23.5646041444692,360.,-11.047263908371));
#1264=CARTESIAN_POINT('Ctrl Pts',(25.6955105440023,0.,-14.4342284028782));
#1265=CARTESIAN_POINT('Ctrl Pts',(25.6955105440023,360.,-14.4342284028782));
#1266=CARTESIAN_POINT('Ctrl Pts',(27.9586767006436,0.,-17.0125226537953));
#1267=CARTESIAN_POINT('Ctrl Pts',(27.9586767006436,360.,-17.0125226537953));
#1268=CARTESIAN_POINT('Ctrl Pts',(30.2118852379452,0.,-18.6851354286508));
#1269=CARTESIAN_POINT('Ctrl Pts',(30.2118852379452,360.,-18.6851354286508));
#1270=CARTESIAN_POINT('Ctrl Pts',(32.4147468493183,0.,-19.472684493649));
#1271=CARTESIAN_POINT('Ctrl Pts',(32.4147468493183,360.,-19.472684493649));
#1272=CARTESIAN_POINT('Ctrl Pts',(34.6746007729986,0.,-19.5493537319466));
#1273=CARTESIAN_POINT('Ctrl Pts',(34.6746007729986,360.,-19.5493537319466));
#1274=CARTESIAN_POINT('Ctrl Pts',(36.6690722967709,0.,-19.2320779570948));
#1275=CARTESIAN_POINT('Ctrl Pts',(36.6690722967709,360.,-19.2320779570948));
#1276=CARTESIAN_POINT('Ctrl Pts',(38.3455430575743,0.,-18.8771180055208));
#1277=CARTESIAN_POINT('Ctrl Pts',(38.3455430575743,360.,-18.8771180055208));
#1278=CARTESIAN_POINT('Ctrl Pts',(39.5544404811727,0.,-18.6019126882431));
#1279=CARTESIAN_POINT('Ctrl Pts',(39.5544404811727,360.,-18.6019126882431));
#1280=CARTESIAN_POINT('Ctrl Pts',(40.1817022698171,0.,-18.4546691984383));
#1281=CARTESIAN_POINT('Ctrl Pts',(40.1817022698171,360.,-18.4546691984383));
#1282=CARTESIAN_POINT('',(41.0905582221492,0.,21.5453308015616));
#1283=CARTESIAN_POINT('Ctrl Pts',(40.1817022698171,0.,-18.4546691984383));
#1284=CARTESIAN_POINT('Ctrl Pts',(39.5544404811727,0.,-18.6019126882431));
#1285=CARTESIAN_POINT('Ctrl Pts',(38.3455430575743,0.,-18.8771180055208));
#1286=CARTESIAN_POINT('Ctrl Pts',(36.6690722967709,0.,-19.2320779570948));
#1287=CARTESIAN_POINT('Ctrl Pts',(34.6746007729986,0.,-19.5493537319466));
#1288=CARTESIAN_POINT('Ctrl Pts',(32.4147468493183,0.,-19.472684493649));
#1289=CARTESIAN_POINT('Ctrl Pts',(30.2118852379452,0.,-18.6851354286508));
#1290=CARTESIAN_POINT('Ctrl Pts',(27.9586767006436,0.,-17.0125226537953));
#1291=CARTESIAN_POINT('Ctrl Pts',(25.6955105440023,0.,-14.4342284028782));
#1292=CARTESIAN_POINT('Ctrl Pts',(23.5646041444692,0.,-11.047263908371));
#1293=CARTESIAN_POINT('Ctrl Pts',(21.7645875500651,0.,-7.03158539557323));
#1294=CARTESIAN_POINT('Ctrl Pts',(20.5055685981879,0.,-2.61720263280651));
#1295=CARTESIAN_POINT('Ctrl Pts',(19.9649720373003,0.,1.9473046641579));
#1296=CARTESIAN_POINT('Ctrl Pts',(20.2401554704876,0.,6.4267629557996));
#1297=CARTESIAN_POINT('Ctrl Pts',(21.3063334897468,0.,10.6284178521073));
#1298=CARTESIAN_POINT('Ctrl Pts',(23.0542087454625,0.,14.3957490005291));
#1299=CARTESIAN_POINT('Ctrl Pts',(25.3200753087188,0.,17.6053670296329));
#1300=CARTESIAN_POINT('Ctrl Pts',(27.9174299942331,0.,20.1638269297796));
#1301=CARTESIAN_POINT('Ctrl Pts',(30.6657049428741,0.,22.0053659015496));
#1302=CARTESIAN_POINT('Ctrl Pts',(33.4222656013857,0.,23.0909644885644));
#1303=CARTESIAN_POINT('Ctrl Pts',(36.1057286933257,0.,23.4064817521901));
#1304=CARTESIAN_POINT('Ctrl Pts',(38.1620800958658,0.,23.0431405765575));
#1305=CARTESIAN_POINT('Ctrl Pts',(39.6481105298703,0.,22.4272377782538));
#1306=CARTESIAN_POINT('Ctrl Pts',(40.6138925945473,0.,21.8646334642449));
#1307=CARTESIAN_POINT('Ctrl Pts',(41.0905582221492,0.,21.5453308015616));
#1308=CARTESIAN_POINT('',(41.0905582221492,360.,21.5453308015616));
#1309=CARTESIAN_POINT('Ctrl Pts',(41.0905582221492,360.,21.5453308015616));
#1310=CARTESIAN_POINT('Ctrl Pts',(40.6138925945473,360.,21.8646334642449));
#1311=CARTESIAN_POINT('Ctrl Pts',(39.6481105298703,360.,22.4272377782538));
#1312=CARTESIAN_POINT('Ctrl Pts',(38.1620800958658,360.,23.0431405765575));
#1313=CARTESIAN_POINT('Ctrl Pts',(36.1057286933257,360.,23.4064817521901));
#1314=CARTESIAN_POINT('Ctrl Pts',(33.4222656013857,360.,23.0909644885644));
#1315=CARTESIAN_POINT('Ctrl Pts',(30.6657049428741,360.,22.0053659015496));
#1316=CARTESIAN_POINT('Ctrl Pts',(27.9174299942331,360.,20.1638269297796));
#1317=CARTESIAN_POINT('Ctrl Pts',(25.3200753087188,360.,17.6053670296329));
#1318=CARTESIAN_POINT('Ctrl Pts',(23.0542087454625,360.,14.3957490005291));
#1319=CARTESIAN_POINT('Ctrl Pts',(21.3063334897468,360.,10.6284178521073));
#1320=CARTESIAN_POINT('Ctrl Pts',(20.2401554704876,360.,6.4267629557996));
#1321=CARTESIAN_POINT('Ctrl Pts',(19.9649720373003,360.,1.9473046641579));
#1322=CARTESIAN_POINT('Ctrl Pts',(20.5055685981879,360.,-2.61720263280651));
#1323=CARTESIAN_POINT('Ctrl Pts',(21.7645875500651,360.,-7.03158539557323));
#1324=CARTESIAN_POINT('Ctrl Pts',(23.5646041444692,360.,-11.047263908371));
#1325=CARTESIAN_POINT('Ctrl Pts',(25.6955105440023,360.,-14.4342284028782));
#1326=CARTESIAN_POINT('Ctrl Pts',(27.9586767006436,360.,-17.0125226537953));
#1327=CARTESIAN_POINT('Ctrl Pts',(30.2118852379452,360.,-18.6851354286508));
#1328=CARTESIAN_POINT('Ctrl Pts',(32.4147468493183,360.,-19.472684493649));
#1329=CARTESIAN_POINT('Ctrl Pts',(34.6746007729986,360.,-19.5493537319466));
#1330=CARTESIAN_POINT('Ctrl Pts',(36.6690722967709,360.,-19.2320779570948));
#1331=CARTESIAN_POINT('Ctrl Pts',(38.3455430575743,360.,-18.8771180055208));
#1332=CARTESIAN_POINT('Ctrl Pts',(39.5544404811727,360.,-18.6019126882431));
#1333=CARTESIAN_POINT('Ctrl Pts',(40.1817022698171,360.,-18.4546691984383));
#1334=CARTESIAN_POINT('',(41.0905582221492,0.,21.5453308015616));
#1335=CARTESIAN_POINT('Origin',(41.0905582221492,0.,11.5453308015616));
#1336=CARTESIAN_POINT('',(41.0905582221492,0.,11.5453308015616));
#1337=CARTESIAN_POINT('',(41.0905582221492,0.,11.5453308015616));
#1338=CARTESIAN_POINT('',(41.0905582221492,360.,11.5453308015616));
#1339=CARTESIAN_POINT('',(41.0905582221492,360.,11.5453308015616));
#1340=CARTESIAN_POINT('',(41.0905582221492,0.,11.5453308015616));
#1341=CARTESIAN_POINT('Origin',(50.,0.,11.5453308015616));
#1342=CARTESIAN_POINT('',(50.,0.,11.5453308015616));
#1343=CARTESIAN_POINT('',(41.0905582221492,0.,11.5453308015616));
#1344=CARTESIAN_POINT('',(50.,360.,11.5453308015616));
#1345=CARTESIAN_POINT('',(41.0905582221492,360.,11.5453308015616));
#1346=CARTESIAN_POINT('',(50.,0.,11.5453308015616));
#1347=CARTESIAN_POINT('Origin',(50.,0.,50.));
#1348=CARTESIAN_POINT('',(50.,0.,50.));
#1349=CARTESIAN_POINT('',(50.,0.,50.));
#1350=CARTESIAN_POINT('',(50.,360.,50.));
#1351=CARTESIAN_POINT('',(50.,360.,50.));
#1352=CARTESIAN_POINT('',(50.,0.,50.));
#1353=CARTESIAN_POINT('Origin',(10.,0.,50.));
#1354=CARTESIAN_POINT('',(10.,0.,50.));
#1355=CARTESIAN_POINT('',(10.,0.,50.));
#1356=CARTESIAN_POINT('',(10.,360.,50.));
#1357=CARTESIAN_POINT('',(10.,360.,50.));
#1358=CARTESIAN_POINT('',(10.,0.,50.));
#1359=CARTESIAN_POINT('Origin',(10.,0.,40.9088559523321));
#1360=CARTESIAN_POINT('',(10.,0.,40.9088559523321));
#1361=CARTESIAN_POINT('',(10.,0.,50.));
#1362=CARTESIAN_POINT('',(10.,360.,40.9088559523321));
#1363=CARTESIAN_POINT('',(10.,360.,50.));
#1364=CARTESIAN_POINT('',(10.,0.,40.9088559523321));
#1365=CARTESIAN_POINT('Origin',(20.,0.,40.9088559523321));
#1366=CARTESIAN_POINT('',(20.,0.,40.9088559523321));
#1367=CARTESIAN_POINT('',(10.,0.,40.9088559523321));
#1368=CARTESIAN_POINT('',(20.,360.,40.9088559523321));
#1369=CARTESIAN_POINT('',(10.,360.,40.9088559523321));
#1370=CARTESIAN_POINT('',(20.,0.,40.9088559523321));
#1371=CARTESIAN_POINT('Ctrl Pts',(-20.,0.,40.));
#1372=CARTESIAN_POINT('Ctrl Pts',(-20.,360.,40.));
#1373=CARTESIAN_POINT('Ctrl Pts',(-20.1472434898048,0.,39.3727382113556));
#1374=CARTESIAN_POINT('Ctrl Pts',(-20.1472434898048,360.,39.3727382113556));
#1375=CARTESIAN_POINT('Ctrl Pts',(-20.4224488070823,0.,38.1638407877569));
#1376=CARTESIAN_POINT('Ctrl Pts',(-20.4224488070823,360.,38.1638407877569));
#1377=CARTESIAN_POINT('Ctrl Pts',(-20.7774087586557,0.,36.4873700269524));
#1378=CARTESIAN_POINT('Ctrl Pts',(-20.7774087586557,360.,36.4873700269524));
#1379=CARTESIAN_POINT('Ctrl Pts',(-21.0946845335071,0.,34.4928985031793));
#1380=CARTESIAN_POINT('Ctrl Pts',(-21.0946845335071,360.,34.4928985031793));
#1381=CARTESIAN_POINT('Ctrl Pts',(-21.0180152952099,0.,32.2330445794995));
#1382=CARTESIAN_POINT('Ctrl Pts',(-21.0180152952099,360.,32.2330445794995));
#1383=CARTESIAN_POINT('Ctrl Pts',(-20.2304662302125,0.,30.0301829681281));
#1384=CARTESIAN_POINT('Ctrl Pts',(-20.2304662302125,360.,30.0301829681281));
#1385=CARTESIAN_POINT('Ctrl Pts',(-18.5578534553577,0.,27.7769744308282));
#1386=CARTESIAN_POINT('Ctrl Pts',(-18.5578534553577,360.,27.7769744308282));
#1387=CARTESIAN_POINT('Ctrl Pts',(-15.9795592044407,0.,25.5138082741879));
#1388=CARTESIAN_POINT('Ctrl Pts',(-15.9795592044407,360.,25.5138082741879));
#1389=CARTESIAN_POINT('Ctrl Pts',(-12.5925947099333,0.,23.3829018746548));
#1390=CARTESIAN_POINT('Ctrl Pts',(-12.5925947099333,360.,23.3829018746548));
#1391=CARTESIAN_POINT('Ctrl Pts',(-8.57691619713533,0.,21.58288528025));
#1392=CARTESIAN_POINT('Ctrl Pts',(-8.57691619713533,360.,21.58288528025));
#1393=CARTESIAN_POINT('Ctrl Pts',(-4.16253343436836,0.,20.3238663283717));
#1394=CARTESIAN_POINT('Ctrl Pts',(-4.16253343436836,360.,20.3238663283717));
#1395=CARTESIAN_POINT('Ctrl Pts',(0.401973862596284,0.,19.7832697674831));
#1396=CARTESIAN_POINT('Ctrl Pts',(0.401973862596284,360.,19.7832697674831));
#1397=CARTESIAN_POINT('Ctrl Pts',(4.8814321542382,0.,20.0584532006694));
#1398=CARTESIAN_POINT('Ctrl Pts',(4.8814321542382,360.,20.0584532006694));
#1399=CARTESIAN_POINT('Ctrl Pts',(9.08308705054599,0.,21.1246312199283));
#1400=CARTESIAN_POINT('Ctrl Pts',(9.08308705054599,360.,21.1246312199283));
#1401=CARTESIAN_POINT('Ctrl Pts',(12.8504181989678,0.,22.8725064756441));
#1402=CARTESIAN_POINT('Ctrl Pts',(12.8504181989678,360.,22.8725064756441));
#1403=CARTESIAN_POINT('Ctrl Pts',(16.0600362280715,0.,25.1383730389008));
#1404=CARTESIAN_POINT('Ctrl Pts',(16.0600362280715,360.,25.1383730389008));
#1405=CARTESIAN_POINT('Ctrl Pts',(18.6184961282182,0.,27.7357277244157));
#1406=CARTESIAN_POINT('Ctrl Pts',(18.6184961282182,360.,27.7357277244157));
#1407=CARTESIAN_POINT('Ctrl Pts',(20.460035099988,0.,30.4840026730571));
#1408=CARTESIAN_POINT('Ctrl Pts',(20.460035099988,360.,30.4840026730571));
#1409=CARTESIAN_POINT('Ctrl Pts',(21.5456336870026,0.,33.240563331569));
#1410=CARTESIAN_POINT('Ctrl Pts',(21.5456336870026,360.,33.240563331569));
#1411=CARTESIAN_POINT('Ctrl Pts',(21.8611509506283,0.,35.924026423509));
#1412=CARTESIAN_POINT('Ctrl Pts',(21.8611509506283,360.,35.924026423509));
#1413=CARTESIAN_POINT('Ctrl Pts',(21.4978097749958,0.,37.9803778260489));
#1414=CARTESIAN_POINT('Ctrl Pts',(21.4978097749958,360.,37.9803778260489));
#1415=CARTESIAN_POINT('Ctrl Pts',(20.8819069766922,0.,39.4664082600533));
#1416=CARTESIAN_POINT('Ctrl Pts',(20.8819069766922,360.,39.4664082600533));
#1417=CARTESIAN_POINT('Ctrl Pts',(20.3193026626833,0.,40.4321903247302));
#1418=CARTESIAN_POINT('Ctrl Pts',(20.3193026626833,360.,40.4321903247302));
#1419=CARTESIAN_POINT('Ctrl Pts',(20.,0.,40.9088559523321));
#1420=CARTESIAN_POINT('Ctrl Pts',(20.,360.,40.9088559523321));
#1421=CARTESIAN_POINT('',(-20.,0.,40.));
#1422=CARTESIAN_POINT('Ctrl Pts',(-20.,0.,40.));
#1423=CARTESIAN_POINT('Ctrl Pts',(-20.1472434898048,0.,39.3727382113556));
#1424=CARTESIAN_POINT('Ctrl Pts',(-20.4224488070823,0.,38.1638407877569));
#1425=CARTESIAN_POINT('Ctrl Pts',(-20.7774087586557,0.,36.4873700269524));
#1426=CARTESIAN_POINT('Ctrl Pts',(-21.0946845335071,0.,34.4928985031793));
#1427=CARTESIAN_POINT('Ctrl Pts',(-21.0180152952099,0.,32.2330445794995));
#1428=CARTESIAN_POINT('Ctrl Pts',(-20.2304662302125,0.,30.0301829681281));
#1429=CARTESIAN_POINT('Ctrl Pts',(-18.5578534553577,0.,27.7769744308282));
#1430=CARTESIAN_POINT('Ctrl Pts',(-15.9795592044407,0.,25.5138082741879));
#1431=CARTESIAN_POINT('Ctrl Pts',(-12.5925947099333,0.,23.3829018746548));
#1432=CARTESIAN_POINT('Ctrl Pts',(-8.57691619713533,0.,21.58288528025));
#1433=CARTESIAN_POINT('Ctrl Pts',(-4.16253343436836,0.,20.3238663283717));
#1434=CARTESIAN_POINT('Ctrl Pts',(0.401973862596284,0.,19.7832697674831));
#1435=CARTESIAN_POINT('Ctrl Pts',(4.8814321542382,0.,20.0584532006694));
#1436=CARTESIAN_POINT('Ctrl Pts',(9.08308705054599,0.,21.1246312199283));
#1437=CARTESIAN_POINT('Ctrl Pts',(12.8504181989678,0.,22.8725064756441));
#1438=CARTESIAN_POINT('Ctrl Pts',(16.0600362280715,0.,25.1383730389008));
#1439=CARTESIAN_POINT('Ctrl Pts',(18.6184961282182,0.,27.7357277244157));
#1440=CARTESIAN_POINT('Ctrl Pts',(20.460035099988,0.,30.4840026730571));
#1441=CARTESIAN_POINT('Ctrl Pts',(21.5456336870026,0.,33.240563331569));
#1442=CARTESIAN_POINT('Ctrl Pts',(21.8611509506283,0.,35.924026423509));
#1443=CARTESIAN_POINT('Ctrl Pts',(21.4978097749958,0.,37.9803778260489));
#1444=CARTESIAN_POINT('Ctrl Pts',(20.8819069766922,0.,39.4664082600533));
#1445=CARTESIAN_POINT('Ctrl Pts',(20.3193026626833,0.,40.4321903247302));
#1446=CARTESIAN_POINT('Ctrl Pts',(20.,0.,40.9088559523321));
#1447=CARTESIAN_POINT('',(-20.,360.,40.));
#1448=CARTESIAN_POINT('Ctrl Pts',(-20.,360.,40.));
#1449=CARTESIAN_POINT('Ctrl Pts',(-20.1472434898048,360.,39.3727382113556));
#1450=CARTESIAN_POINT('Ctrl Pts',(-20.4224488070823,360.,38.1638407877569));
#1451=CARTESIAN_POINT('Ctrl Pts',(-20.7774087586557,360.,36.4873700269524));
#1452=CARTESIAN_POINT('Ctrl Pts',(-21.0946845335071,360.,34.4928985031793));
#1453=CARTESIAN_POINT('Ctrl Pts',(-21.0180152952099,360.,32.2330445794995));
#1454=CARTESIAN_POINT('Ctrl Pts',(-20.2304662302125,360.,30.0301829681281));
#1455=CARTESIAN_POINT('Ctrl Pts',(-18.5578534553577,360.,27.7769744308282));
#1456=CARTESIAN_POINT('Ctrl Pts',(-15.9795592044407,360.,25.5138082741879));
#1457=CARTESIAN_POINT('Ctrl Pts',(-12.5925947099333,360.,23.3829018746548));
#1458=CARTESIAN_POINT('Ctrl Pts',(-8.57691619713533,360.,21.58288528025));
#1459=CARTESIAN_POINT('Ctrl Pts',(-4.16253343436836,360.,20.3238663283717));
#1460=CARTESIAN_POINT('Ctrl Pts',(0.401973862596284,360.,19.7832697674831));
#1461=CARTESIAN_POINT('Ctrl Pts',(4.8814321542382,360.,20.0584532006694));
#1462=CARTESIAN_POINT('Ctrl Pts',(9.08308705054599,360.,21.1246312199283));
#1463=CARTESIAN_POINT('Ctrl Pts',(12.8504181989678,360.,22.8725064756441));
#1464=CARTESIAN_POINT('Ctrl Pts',(16.0600362280715,360.,25.1383730389008));
#1465=CARTESIAN_POINT('Ctrl Pts',(18.6184961282182,360.,27.7357277244157));
#1466=CARTESIAN_POINT('Ctrl Pts',(20.460035099988,360.,30.4840026730571));
#1467=CARTESIAN_POINT('Ctrl Pts',(21.5456336870026,360.,33.240563331569));
#1468=CARTESIAN_POINT('Ctrl Pts',(21.8611509506283,360.,35.924026423509));
#1469=CARTESIAN_POINT('Ctrl Pts',(21.4978097749958,360.,37.9803778260489));
#1470=CARTESIAN_POINT('Ctrl Pts',(20.8819069766922,360.,39.4664082600533));
#1471=CARTESIAN_POINT('Ctrl Pts',(20.3193026626833,360.,40.4321903247302));
#1472=CARTESIAN_POINT('Ctrl Pts',(20.,360.,40.9088559523321));
#1473=CARTESIAN_POINT('',(-20.,0.,40.));
#1474=CARTESIAN_POINT('Origin',(-10.,0.,40.));
#1475=CARTESIAN_POINT('',(-10.,0.,40.));
#1476=CARTESIAN_POINT('',(-10.,0.,40.));
#1477=CARTESIAN_POINT('',(-10.,360.,40.));
#1478=CARTESIAN_POINT('',(-10.,360.,40.));
#1479=CARTESIAN_POINT('',(-10.,0.,40.));
#1480=CARTESIAN_POINT('Origin',(-10.,0.,50.));
#1481=CARTESIAN_POINT('',(-10.,0.,50.));
#1482=CARTESIAN_POINT('',(-10.,0.,50.));
#1483=CARTESIAN_POINT('',(-10.,360.,50.));
#1484=CARTESIAN_POINT('',(-10.,360.,50.));
#1485=CARTESIAN_POINT('',(-10.,0.,50.));
#1486=CARTESIAN_POINT('Origin',(-50.,0.,50.));
#1487=CARTESIAN_POINT('',(-50.,0.,50.));
#1488=CARTESIAN_POINT('',(-50.,0.,50.));
#1489=CARTESIAN_POINT('',(-50.,360.,50.));
#1490=CARTESIAN_POINT('',(-50.,360.,50.));
#1491=CARTESIAN_POINT('',(-50.,0.,50.));
#1492=CARTESIAN_POINT('Origin',(-50.,0.,11.5453308015616));
#1493=CARTESIAN_POINT('',(-50.,0.,11.5453308015616));
#1494=CARTESIAN_POINT('',(-50.,0.,11.5453308015616));
#1495=CARTESIAN_POINT('',(-50.,360.,11.5453308015616));
#1496=CARTESIAN_POINT('',(-50.,360.,11.5453308015616));
#1497=CARTESIAN_POINT('',(-50.,0.,11.5453308015616));
#1498=CARTESIAN_POINT('Origin',(-41.0905582221492,0.,11.5453308015616));
#1499=CARTESIAN_POINT('',(-41.0905582221492,0.,11.5453308015616));
#1500=CARTESIAN_POINT('',(-41.0905582221492,360.,11.5453308015616));
#1501=CARTESIAN_POINT('Origin',(0.,360.,0.));
#1502=CARTESIAN_POINT('Origin',(0.,0.,0.));
#1503=UNCERTAINTY_MEASURE_WITH_UNIT(LENGTH_MEASURE(0.01),#1507,
'DISTANCE_ACCURACY_VALUE',
'Maximum model space distance between geometric entities at asserted c
onnectivities');
#1504=UNCERTAINTY_MEASURE_WITH_UNIT(LENGTH_MEASURE(0.01),#1507,
'DISTANCE_ACCURACY_VALUE',
'Maximum model space distance between geometric entities at asserted c
onnectivities');
#1505=(
GEOMETRIC_REPRESENTATION_CONTEXT(3)
GLOBAL_UNCERTAINTY_ASSIGNED_CONTEXT((#1503))
GLOBAL_UNIT_ASSIGNED_CONTEXT((#1507,#1509,#1510))
REPRESENTATION_CONTEXT('','3D')
);
#1506=(
GEOMETRIC_REPRESENTATION_CONTEXT(3)
GLOBAL_UNCERTAINTY_ASSIGNED_CONTEXT((#1504))
GLOBAL_UNIT_ASSIGNED_CONTEXT((#1507,#1509,#1510))
REPRESENTATION_CONTEXT('','3D')
);
#1507=(
LENGTH_UNIT()
NAMED_UNIT(*)
SI_UNIT(.MILLI.,.METRE.)
);
#1508=(
LENGTH_UNIT()
NAMED_UNIT(*)
SI_UNIT($,.METRE.)
);
#1509=(
NAMED_UNIT(*)
PLANE_ANGLE_UNIT()
SI_UNIT($,.RADIAN.)
);
#1510=(
NAMED_UNIT(*)
SI_UNIT($,.STERADIAN.)
SOLID_ANGLE_UNIT()
);
#1511=SHAPE_DEFINITION_REPRESENTATION(#1512,#1513);
#1512=PRODUCT_DEFINITION_SHAPE('',$,#1515);
#1513=SHAPE_REPRESENTATION('',(#723),#1505);
#1514=PRODUCT_DEFINITION_CONTEXT('part definition',#1519,'design');
#1515=PRODUCT_DEFINITION('2026-06-13-23-15-01-144','sample',#1516,#1514);
#1516=PRODUCT_DEFINITION_FORMATION('',$,#1521);
#1517=PRODUCT_RELATED_PRODUCT_CATEGORY('sample','sample',(#1521));
#1518=APPLICATION_PROTOCOL_DEFINITION('international standard',
'automotive_design',2009,#1519);
#1519=APPLICATION_CONTEXT(
'Core Data for Automotive Mechanical Design Process');
#1520=PRODUCT_CONTEXT('part definition',#1519,'mechanical');
#1521=PRODUCT('2026-06-13-23-15-01-144','sample',$,(#1520));
#1522=PRESENTATION_STYLE_ASSIGNMENT((#1523));
#1523=SURFACE_STYLE_USAGE(.BOTH.,#1524);
#1524=SURFACE_SIDE_STYLE('',(#1525));
#1525=SURFACE_STYLE_FILL_AREA(#1526);
#1526=FILL_AREA_STYLE('Steel - Satin',(#1527));
#1527=FILL_AREA_STYLE_COLOUR('Steel - Satin',#1528);
#1528=COLOUR_RGB('Steel - Satin',0.627450980392157,0.627450980392157,0.627450980392157);
ENDSEC;
END-ISO-10303-21;
